<svg xmlns="http://www.w3.org/2000/svg" viewBox="0 0 500 500"><g id="freepik--Floor--inject-138"><path id="freepik--floor--inject-138" d="M77.66,248.24c-95.18,54.95-95.17,144.05,0,199s249.49,54.95,344.67,0,95.17-144,0-199S172.84,193.29,77.66,248.24Z" style="fill:#fafafa"></path></g><g id="freepik--Lines--inject-138"><g id="freepik--Thoughts--inject-138" style="opacity:0.25"><path d="M178.74,375.16A140.07,140.07,0,0,1,41.06,258.27h0A139.72,139.72,0,0,1,260.21,121.68a139.79,139.79,0,0,1-58.32,251.56A141.7,141.7,0,0,1,178.74,375.16Zm.43-278.68a140.84,140.84,0,0,0-23,1.9,138.19,138.19,0,1,0,23-1.9Z" style="fill:#BA68C8"></path><path d="M232.37,375.14a140.61,140.61,0,1,1,23.26-1.93A141.94,141.94,0,0,1,232.37,375.14Zm.43-280A141,141,0,0,0,209.7,97,139.69,139.69,0,0,0,95,257.54c11.33,68.17,70.6,116.64,137.55,116.64a139.46,139.46,0,0,0,81.17-253A138.56,138.56,0,0,0,232.8,95.11Z" style="fill:#BA68C8"></path><path d="M292.14,368.74c-67.4,0-127.07-48.8-138.48-117.44C141,174.9,192.78,102.41,269.18,89.7a140.63,140.63,0,0,1,161.6,115.52c12.7,76.41-39.12,148.9-115.52,161.6A141,141,0,0,1,292.14,368.74ZM154.59,251.15C167.21,327,239.21,378.51,315.1,365.89s127.37-84.62,114.75-160.51A139.69,139.69,0,0,0,269.33,90.63C193.45,103.25,142,175.26,154.59,251.15Z" style="fill:#BA68C8"></path><path d="M183.27,329.7c-67.41,0-127.08-48.8-138.49-117.44C32.08,135.85,83.9,63.36,160.3,50.66A140.61,140.61,0,0,1,321.9,166.18c12.71,76.4-39.12,148.9-115.52,161.6A140.93,140.93,0,0,1,183.27,329.7ZM45.71,212.1C58.33,288,130.34,339.47,206.23,326.85S333.59,242.22,321,166.33A139.67,139.67,0,0,0,160.46,51.59C84.57,64.21,33.1,136.21,45.71,212.1Z" style="fill:#BA68C8"></path><path d="M207,334.92c-67.41,0-127.08-48.8-138.49-117.43C55.79,141.08,107.61,68.59,184,55.89a140.46,140.46,0,1,1,23,279ZM69.42,217.33C82,293.22,154,344.69,229.94,332.07S357.3,247.45,344.68,171.56A139.67,139.67,0,0,0,184.17,56.82C108.28,69.44,56.8,141.44,69.42,217.33Z" style="fill:#BA68C8"></path><path d="M214.69,323.48a82.54,82.54,0,1,1,13.63-1.14A83.85,83.85,0,0,1,214.69,323.48Zm.17-163.73a81.35,81.35,0,1,0,80.23,68A81.36,81.36,0,0,0,214.86,159.75Z" style="fill:#BA68C8"></path><path d="M253.22,264.33a82.42,82.42,0,1,1,13.54-1.13A82.47,82.47,0,0,1,253.22,264.33Zm.08-163.72a81.35,81.35,0,1,0,80.23,68A81.36,81.36,0,0,0,253.3,100.61Z" style="fill:#BA68C8"></path><path d="M235.33,278.09A82.35,82.35,0,1,1,248.88,277,83.31,83.31,0,0,1,235.33,278.09Zm-80.23-69A81.38,81.38,0,1,0,222,115.48a81.48,81.48,0,0,0-66.93,93.63Z" style="fill:#BA68C8"></path><path d="M273.72,231.19a82.27,82.27,0,1,1,13.55-1.12A82.44,82.44,0,0,1,273.72,231.19Zm-80.23-69a81.46,81.46,0,1,0,14.1-60.65A81.47,81.47,0,0,0,193.49,162.21Z" style="fill:#BA68C8"></path><path d="M245.15,236.93a78.05,78.05,0,0,1-76.83-65.16h0a77.9,77.9,0,1,1,76.83,65.16Zm-75.9-65.31a77.1,77.1,0,1,0,13.35-57.38A77.08,77.08,0,0,0,169.25,171.62Z" style="fill:#BA68C8"></path><path d="M172.16,251.61a82.3,82.3,0,1,1,13.54-1.12A82.46,82.46,0,0,1,172.16,251.61Zm.09-163.71a81.34,81.34,0,1,0,80.23,68A81.48,81.48,0,0,0,172.25,87.9Z" style="fill:#BA68C8"></path><path d="M229.47,302.06a140.41,140.41,0,0,1-114-222.14,140.4,140.4,0,1,1,228.44,163.3,139.54,139.54,0,0,1-91.18,56.91A141.85,141.85,0,0,1,229.47,302.06Zm.44-280a139.8,139.8,0,1,0,80.88,26.1A139.91,139.91,0,0,0,229.91,22Z" style="fill:#BA68C8"></path><path d="M282.76,313.14A140.41,140.41,0,0,1,168.76,91a140.46,140.46,0,0,1,252.77,58.61C434.24,226,382.41,298.51,306,311.21A140.73,140.73,0,0,1,282.76,313.14Zm.43-280A141,141,0,0,0,260.09,35,139.45,139.45,0,0,0,201.88,286.1a138.51,138.51,0,0,0,104,24.18c75.89-12.62,127.36-84.62,114.74-160.51A139.77,139.77,0,0,0,283.19,33.11Z" style="fill:#BA68C8"></path></g></g><g id="freepik--Shadow--inject-138"><path id="freepik--shadow--inject-138" d="M448.2,432l-14.47-11.18c-4.48-3.46-9-7-12.52-11.36a26.66,26.66,0,0,1-5.46-14.43,10.79,10.79,0,0,1,1.07-5.46c1.73-3.26,5-4.63,8-6.42A88.66,88.66,0,0,0,434,377a99.85,99.85,0,0,0,15.84-15.32c11.15-13.4,20.48-29.58,17.2-47.45-.87-4.79-3.2-10.72-8.42-12.34.64,4.47,1.26,9.16-.38,13.38-1.77-.26-2.5-2.32-3-4a37.9,37.9,0,0,0-7-13.19c-2-2.48-4.76-4.86-8-4.69-.06,1.63.89,3.1,1.71,4.52A32.27,32.27,0,0,1,446.23,313a3.91,3.91,0,0,1-.34,2.06,1.55,1.55,0,0,1-1.79.8,2.34,2.34,0,0,1-1-1.06c-3.07-5.07-6.79-9.94-11.83-13.15a6.24,6.24,0,0,0-4.09-1.27c-.15,1.15.61,2.19,1.28,3.15A32.78,32.78,0,0,1,434.4,324c-.1,2-.73,4.34-2.67,4.85-5.8,1.52-5.79-8.7-7.94-11.48a.93.93,0,0,0-.74-.46,1,1,0,0,0-.63.47,13.57,13.57,0,0,0-2.21,6.86,31.7,31.7,0,0,0,.72,10.18c1.34,5.67,4.39,12.25,0,17.28-11.88,13.52-36.21,13.4-50,3-7-5.26-9.54-14.38-11-22.92-.45-2.59-.88-5.28-2.3-7.52a16.23,16.23,0,0,0-5.67-4.94c-11.11-6.57-24.48-8.2-37.42-8.92a310.33,310.33,0,0,0-84.26,6.5c-12.46,2.78-25.69,3.43-38.38,5.84-10.38,2-20.49,4.51-30.91,5.83-11,1.39-21.92,4-31.75,9.07-11.44,6-21.26,15.72-25,27.89-1.1,3.55-1.65,7.53,0,10.9,1.44,3,4.37,5.07,7.29,6.78A75.72,75.72,0,0,0,132,391.48c2.48.58,6.22,1.56,6.9,4.45,1.59,6.74-14.69,9.58-18.47,10.4-9.56,2.08-19.56,2.72-29.14.4-3.78-.92-7.56-2.36-10.37-5s-4.48-6.71-3.42-10.39c.93-3.22,3.7-5.6,5.21-8.6.93-1.83,2.9-10.34-.51-10.9-1.9-.32-3,4-4.13,5-2,1.69-5.51,2-7.21,0a6,6,0,0,1-1.16-3.05,16.58,16.58,0,0,1,2.67-11.65A16.91,16.91,0,0,1,78,356.93c1-.56,5.47-1.48,5.54-2.45a1.31,1.31,0,0,0-.23-.76c-.91-1.55-2.87-2.18-4.68-2.31a15.89,15.89,0,0,0-15.41,8.24,5.46,5.46,0,0,1-.87,1.38,1.62,1.62,0,0,1-1.49.53,1.54,1.54,0,0,1-1-1.15,4.05,4.05,0,0,1,0-1.59A65.67,65.67,0,0,1,62.56,348c.93-2.94,2.94-5.56,3.21-8.7a1.26,1.26,0,0,0-.21-1,1.21,1.21,0,0,0-.85-.32c-3.21-.29-5.9,2.29-7.79,4.85a42.79,42.79,0,0,0-7,14.81c-.25,1-1.24,2.35-2.54,1.8a1.94,1.94,0,0,1-.94-1.33,11.65,11.65,0,0,1,.73-7.5c1-2.38,2.33-4.57,3.48-6.87.14-.27.26-.62,0-.85a.69.69,0,0,0-.45-.17,4.91,4.91,0,0,0-3.36,1.41c-5.51,4.4-7.82,10.48-9.66,17.05-3.43,12.25-2.77,24.69,2.91,36.27C49.36,416.2,70.41,426.61,90,432a156.56,156.56,0,0,0,43.81,5.09c1,0,1.91,0,2.87-.06,10.4-.29,21.34-1,31.46-3.55,9.48-2.41,19.84-1.81,29.65-2.17,4.69-.17,9.46-.33,14,.9,5,1.36,9.33,4.31,13.92,6.66,14.63,7.51,31.15,7.83,46.93,11.22,6.37,1.36,14.25,2.49,20,5.63,5.49,3,10.86,6.81,16.36,10a152.36,152.36,0,0,0,19,9.73,55.78,55.78,0,0,0,34.64,1.72A25.56,25.56,0,0,0,375.73,469c1.67-2,3.14-4.13,4.83-6.08a9.17,9.17,0,0,1,4.26-3.14,9.56,9.56,0,0,1,3.77-.07,53.39,53.39,0,0,1,8.32,1.71c5.23,1.52,10.19,3.61,15.59,4.63a51.39,51.39,0,0,0,16.46.61c8.85-1.18,19.31-5.91,24.91-13,2.4-3,3.89-7,3.09-10.77C456,438.24,452,435,448.2,432Z" style="fill:#e0e0e0"></path></g><g id="freepik--Character--inject-138"><g id="freepik--character--inject-138"><path d="M209.86,399.07c-22.55-8.27-32.24-20.06-38.6-34.86-5.89-13.68-5.89-24-5.89-24s20.75,3.55,41.94,1.35S235.92,338,235.92,338Z" style="fill:#455a64"></path><g id="freepik--Top--inject-138"><path d="M259,187.31c18.94,5.35,29.46,16,45.52,34.25,17.45,19.82,23.85,28.35,23.85,28.35l-4.51,45.5c-14,2.53-28.61-11.28-52.29-39.14Z" style="fill:#37474f"></path><g id="freepik--Chest--inject-138"><path d="M272.85,236.22c-.16-33.44-7.82-46.86-14.68-49.24,0,0-24.61-9.8-51.88-5.17-7.7,1.3-20.58,5.91-30.23,9.4-6.09,2.2-14.62,18.82-16.72,38.67-1.69,16.13-1.62,29.63-.6,56.51,1.06,28.19,2,34.15,4.75,57.09,43.88,10.74,92.81-3.43,116.8-44.7-2.6-8.35-4.07-16.59-5.29-29.5C273.61,254.74,272.89,246.39,272.85,236.22Z" style="fill:#BA68C8"></path><g id="freepik--Head--inject-138"><path d="M206.62,174.5c-.76-9.1-6.31-19.22-9.66-27.39-3.24-7.87-5.05-13.92-4-21,.61-4.18,3.74-9.65,7-10.58-2.28-15.92,10.05-22.17,16.4-23.12a67.72,67.72,0,0,0,8.81-1.67c3.5-1.13,4.5-3.78,7.42-5.87,5-3.59,13-3,15.45,3.28,3.46-3.77,7.69-3.31,12.49-1.65a8.4,8.4,0,0,1,5.6,10c6.86-3.11,12.47,2,12.75,5.92.2,2.88-.61,5.22,1,7.92,1.85,3,5.81,3.33,7.21,1.12.33,4.09-1.51,7-5.86,6.44a9.2,9.2,0,0,1,.48,7.8,8.37,8.37,0,0,1-8,5.12c-.66,2.18-.92,4.2-2.47,6a14.58,14.58,0,0,1-5.55,4.2c-6.89,2.6-14.3,3-21.56,3.87l-8.62,1c-.5.06-3.07,0-3.41.41Z" style="fill:#263238"></path><path d="M197.54,162.34c7.07,5.55,11.13,1.18,11.13,1.18l-4,21.59c12.84,25,44.4,21.55,38.58,10.88l1.24-9.73a87.3,87.3,0,0,0,10.72.43c7.11-.37,13.53-5.43,16.19-12.88,2.77-7.78,4.45-20.75,3.53-30.44a26.36,26.36,0,0,1,.25-7.42c1.23-6.48.38-10.39-.85-16-7.21-6.9-25.68-10.41-43.24-1.68,1.09,10.1-3.44,17.64-11,20.82.11,2.71-.13,9.51-4.53,9-3.17-.36-2.47-4.36-5.43-8.15s-10.65-5-15-.12C189.54,146.05,192.12,158.08,197.54,162.34Z" style="fill:#ffbda7"></path><path d="M246.21,168.75c1.45,0,2.88,0,4.33-.05a5.44,5.44,0,0,0,2.85-.82.53.53,0,0,0,.23-.24.61.61,0,0,0,0-.44,3.38,3.38,0,0,0-3-2.06,6.28,6.28,0,0,0-4.31,1.26c-.39.33-2.05,1.7-1.24,2.2a1.32,1.32,0,0,0,.68.14Z" style="fill:#b16668"></path><path d="M244.46,186.26c-11-2.27-19.42-4.2-24.55-12.78-3.21-5.38-5.6-13.8-5.6-13.8s.3,10,3.38,17c2.37,5.4,8.9,10.28,26.27,13.27Z" style="fill:#f0997a"></path><path d="M245.05,142.94a3.16,3.16,0,1,1-3-3.45A3.22,3.22,0,0,1,245.05,142.94Z" style="fill:#263238"></path><path d="M236.24,133.45l6.92-3.38a4,4,0,0,1-1.83,5.28A3.76,3.76,0,0,1,236.24,133.45Z" style="fill:#263238"></path><path d="M260.79,130.07l7.39,2.34a3.71,3.71,0,0,1-4.73,2.6A4.07,4.07,0,0,1,260.79,130.07Z" style="fill:#263238"></path><path d="M272.42,143.83a3.15,3.15,0,1,1-3-3.44A3.2,3.2,0,0,1,272.42,143.83Z" style="fill:#263238"></path></g></g><path d="M175.37,191.51c-11.69,4.5-21.7,10.59-25.33,26.13-3.76,16.09,4.18,36.24,14.67,58.65,8.22,17.56,19,30.47,29.8,33.67s11.69-41.73,11.69-41.73S189.41,212.19,175.37,191.51Z" style="fill:#37474f"></path><path d="M215.46,205.57c-.07,8.35-14,32.78-21,43.45s-9.09,15.86-10.25,25,1.64,24.05,7.25,33.1c3.12,5,16.46,3.15,27.3-11.82s11.38-28.67,13.48-46.37c1.63-13.8,3.65-22,4.88-29.23.48-2.88,4.41-10.43,7.27-19.77s.48-16.09.62-19.95a40.93,40.93,0,0,1,1.86-11.63,65.89,65.89,0,0,0,2.32-7.05c1.25-5.9-.41-8.2-1.94-8.73.75-4.16.09-6.83-2.29-7.83.59-3.7-1.71-6.61-3.52-5.74s-4.05,5-4.05,5a7,7,0,0,0-4.41.57c-2,1.11-6.73,7.49-9.92,10.89s-3,7.87-5.07,13.69a19.38,19.38,0,0,0-3.41-4.91c-2.21-2.27-6.65-1.91-5.36,2.62s2.18,10.82,2.61,19.1,3.6,19.62,3.6,19.62" style="fill:#ffbda7"></path><path d="M249.89,156a6.52,6.52,0,0,0-.71-2.2,3.55,3.55,0,0,0-1.52-1.45,13.21,13.21,0,0,0,.15-4.26,5.36,5.36,0,0,0-.82-2.21,4.15,4.15,0,0,0-1.6-1.37A7.48,7.48,0,0,0,245,141a5.18,5.18,0,0,0-1-1.66,2.71,2.71,0,0,0-1.84-.94,2.9,2.9,0,0,0-1.85.89,11.8,11.8,0,0,0-1.26,1.4,25,25,0,0,0-1.85,2.83,7.12,7.12,0,0,0-4.12.53,13.57,13.57,0,0,0-3.25,2.94c-1.89,2.14-3.65,4.36-5.5,6.5-.46.54-.93,1.07-1.4,1.59a10.8,10.8,0,0,0-1.34,1.73,15.18,15.18,0,0,0-1.66,4c-.7,2.53-1.2,5.08-2,7.53a21.12,21.12,0,0,0-1.43-2.31,17,17,0,0,0-1.07-1.34,7,7,0,0,0-1.27-1.22,4.42,4.42,0,0,0-3.42-.82,2.57,2.57,0,0,0-1.54,1,3,3,0,0,0-.44,1.77,21.7,21.7,0,0,0,.74,3.36c.26,1.09.48,2.2.68,3.31.4,2.21.69,4.45.92,6.7.5,4.47.51,9,1.34,13.5a130.45,130.45,0,0,0,3,13.23,131.36,131.36,0,0,1-2.77-13.27c-.76-4.46-.65-9-1.14-13.51-.23-2.25-.5-4.5-.89-6.74-.19-1.11-.41-2.23-.67-3.33a21.68,21.68,0,0,1-.7-3.26,2.41,2.41,0,0,1,.36-1.46,2,2,0,0,1,1.22-.79,3.88,3.88,0,0,1,3,.74,7.79,7.79,0,0,1,1.16,1.14c.36.42.71.86,1,1.31a19.83,19.83,0,0,1,1.71,2.86l.31.65.24-.68c1-2.69,1.5-5.51,2.26-8.21a14.55,14.55,0,0,1,1.62-3.82,9.85,9.85,0,0,1,1.27-1.62l1.43-1.59c1.86-2.15,3.64-4.36,5.53-6.46a12.9,12.9,0,0,1,3-2.74,6.42,6.42,0,0,1,3.9-.4l.3.05.15-.26a26,26,0,0,1,1.93-3,11,11,0,0,1,1.15-1.29,2.19,2.19,0,0,1,1.3-.7c.94.05,1.75,1.07,2.14,2.09a6.7,6.7,0,0,1,.32,3.36l0,.29.27.11a3.48,3.48,0,0,1,1.53,1.23,4.65,4.65,0,0,1,.72,1.91,13.08,13.08,0,0,1-.16,4.27l-.05.3.28.09c1.22.44,1.86,1.87,2.05,3.22a13.57,13.57,0,0,1-.15,4.26c-.45,2.85-1.7,5.51-2.58,8.32a37.11,37.11,0,0,0-1.58,8.66,27.16,27.16,0,0,0,0,4.42c.13,1.47.35,2.91.49,4.36a36.09,36.09,0,0,1,0,8.69,46,46,0,0,1-2.15,8.44c-.93,2.76-2,5.5-3,8.21l-1.62,4.07a26.57,26.57,0,0,0-1.35,4.16,24.31,24.31,0,0,1,1.43-4.13l1.69-4c1.13-2.7,2.21-5.41,3.19-8.17a42.67,42.67,0,0,0,2.29-8.48,37,37,0,0,0,.08-8.8c-.13-1.46-.34-2.91-.47-4.35a27.43,27.43,0,0,1,.09-4.34,36.22,36.22,0,0,1,1.6-8.52c.88-2.76,2.17-5.44,2.65-8.39A14.8,14.8,0,0,0,249.89,156Z" style="fill:#b16668"></path><path d="M191.49,307.1A5.32,5.32,0,0,0,194.3,309a10.91,10.91,0,0,0,3.37.27,19.43,19.43,0,0,0,6.51-1.9,30.64,30.64,0,0,0,5.8-3.63,40.58,40.58,0,0,0,5.07-4.65,51.61,51.61,0,0,0,8-11.3,58,58,0,0,0,5-12.93c2.38-9,3.05-18.35,4.27-27.58.59-4.63,1.32-9.24,2.16-13.82s1.84-9.15,2.66-13.74c-.77,4.6-1.71,9.17-2.5,13.76s-1.49,9.2-2,13.83c-1.12,9.24-1.66,18.6-4,27.7a58.33,58.33,0,0,1-5,13.12c-.54,1-1.09,2.07-1.72,3.06l-.91,1.51-1,1.46a49.9,49.9,0,0,1-4.21,5.65,43.15,43.15,0,0,1-5.12,4.9,30.37,30.37,0,0,1-6.1,3.66A17.81,17.81,0,0,1,197.7,310a9.52,9.52,0,0,1-3.54-.6A5.13,5.13,0,0,1,191.49,307.1Z" style="fill:#f28f8f"></path><path d="M225.32,168.31a60.08,60.08,0,0,1,.82-6.9,17.05,17.05,0,0,1,2.93-6.42,122.52,122.52,0,0,1,8.56-10.55c-2.2,4.07-4.94,7.47-7.56,11.26a19.3,19.3,0,0,0-3,6C226.4,163.8,226,166.1,225.32,168.31Z" style="fill:#f0997a"></path><path d="M244.6,144.93a2.07,2.07,0,0,0-1.72.28,4.24,4.24,0,0,0-1,1.41c-.57,1.07-1,2.26-1.48,3.41-1,2.3-2,4-3.13,6.23a30.72,30.72,0,0,0-1.56,3.3c-.4,1.13-.73,2.35-1.1,3.53-.72,2.39-1.48,4.76-2.32,7.13.37-2.48.82-4.94,1.38-7.38.28-1.22.57-2.42.93-3.66a30,30,0,0,1,1.57-3.49c1.15-2.22,2.2-3.89,3.36-6.08a35.94,35.94,0,0,1,1.83-3.3,4.47,4.47,0,0,1,1.39-1.38A2.07,2.07,0,0,1,244.6,144.93Z" style="fill:#f0997a"></path><path d="M246.88,152.73a2,2,0,0,0-1.29.53,4.28,4.28,0,0,0-.8,1.16,22.48,22.48,0,0,0-1.1,2.68,43.28,43.28,0,0,1-1.75,5.38c-.43.9-.88,1.79-1.33,2.67a24.05,24.05,0,0,0-1.24,2.62c-.69,1.81-1.27,3.7-1.87,5.59a27.92,27.92,0,0,1,1-5.91,43.82,43.82,0,0,1,2.36-5.49c.85-1.78,1.17-3.38,2-5.22a14.94,14.94,0,0,1,1.48-2.64,4.64,4.64,0,0,1,1.11-1.1A1.93,1.93,0,0,1,246.88,152.73Z" style="fill:#f0997a"></path><path d="M218,169.14c-.06,2.39-.26,4.73-.49,7.09a62.91,62.91,0,0,1-1,7,37.71,37.71,0,0,1,.12-7.13A32.2,32.2,0,0,1,218,169.14Z" style="fill:#f0997a"></path><path d="M299,198.21c.7,7.89,15.73,29.88,23.16,39.41s9.8,14.28,11.61,22.8.31,22.83-4.29,31.81c-2.55,5-15.29,4.25-26.69-9s-13-26.2-16.31-42.75c-2.61-12.9-5.15-20.46-6.87-27.22-.68-2.68-5-9.51-8.4-18.1s-1.7-15.16-2.14-18.79a38.39,38.39,0,0,0-2.65-10.84,64.63,64.63,0,0,1-2.74-6.48c-1.63-5.47-.24-7.77,1.16-8.39-1-3.87-.61-6.45,1.56-7.57-.85-3.45,1.1-6.38,2.87-5.69s4.22,4.42,4.22,4.42a6.65,6.65,0,0,1,4.21.19c2,.9,6.93,6.55,10.21,9.52s3.48,7.19,5.84,12.52a18.82,18.82,0,0,1,2.84-4.89c1.92-2.32,6.14-2.32,5.27,2.06s-1.22,10.39-1,18.23-1.87,18.8-1.87,18.8" style="fill:#ffbda7"></path><path d="M262.65,154.07a6.12,6.12,0,0,1,.49-2.12,3.45,3.45,0,0,1,1.32-1.49,12.82,12.82,0,0,1-.47-4,5,5,0,0,1,.61-2.15,4,4,0,0,1,1.41-1.42,6.87,6.87,0,0,1,.08-3.31,4.65,4.65,0,0,1,.82-1.65,2.55,2.55,0,0,1,1.66-1,2.79,2.79,0,0,1,1.82.7,10,10,0,0,1,1.29,1.22,21.84,21.84,0,0,1,2,2.54,6.71,6.71,0,0,1,3.94.18,12.83,12.83,0,0,1,3.29,2.52c1.95,1.87,3.79,3.83,5.69,5.71.48.47,1,.94,1.45,1.39a10.73,10.73,0,0,1,1.4,1.53,14.53,14.53,0,0,1,1.88,3.65c.85,2.34,1.52,4.7,2.46,7a19,19,0,0,1,1.18-2.29,15.34,15.34,0,0,1,.91-1.36,7.09,7.09,0,0,1,1.1-1.24,4.14,4.14,0,0,1,3.17-1,2.38,2.38,0,0,1,1.53.84,2.79,2.79,0,0,1,.55,1.64,20.63,20.63,0,0,1-.43,3.23c-.17,1.05-.29,2.11-.39,3.17-.21,2.13-.3,4.26-.35,6.4-.12,4.27.21,8.57-.22,12.85A126.41,126.41,0,0,1,299,198.21a124.14,124.14,0,0,0,1.58-12.74c.37-4.26-.08-8.54,0-12.84,0-2.14.12-4.29.32-6.43.09-1.07.21-2.14.37-3.2a21,21,0,0,0,.41-3.13,2.36,2.36,0,0,0-.45-1.36,1.88,1.88,0,0,0-1.22-.64,3.61,3.61,0,0,0-2.75.93,7.19,7.19,0,0,0-1,1.16q-.46.64-.87,1.32a18.1,18.1,0,0,0-1.39,2.83l-.24.64-.29-.62c-1.12-2.47-1.84-5.09-2.77-7.58a13.57,13.57,0,0,0-1.82-3.48,9.44,9.44,0,0,0-1.32-1.44c-.5-.45-1-.92-1.47-1.39-1.93-1.88-3.78-3.83-5.73-5.67a12.34,12.34,0,0,0-3.06-2.35,6.21,6.21,0,0,0-3.72-.08l-.28.08-.15-.23a25.49,25.49,0,0,0-2.06-2.66,9.73,9.73,0,0,0-1.19-1.13,2,2,0,0,0-1.28-.56c-.88.11-1.57,1.14-1.85,2.13a6.31,6.31,0,0,0-.05,3.2l.06.27-.24.13a3.29,3.29,0,0,0-1.36,1.28,4.5,4.5,0,0,0-.53,1.85,12.38,12.38,0,0,0,.49,4l.07.27-.26.12a3.62,3.62,0,0,0-1.69,3.2,13.28,13.28,0,0,0,.47,4c.65,2.66,2,5.07,3.09,7.66a35.15,35.15,0,0,1,2.15,8.06,26.17,26.17,0,0,1,.4,4.16c0,1.4-.11,2.78-.13,4.16a34.19,34.19,0,0,0,.7,8.2,42.83,42.83,0,0,0,2.69,7.8c1.09,2.54,2.28,5,3.51,7.52L278,209.4a24.54,24.54,0,0,1,1.61,3.82,25.52,25.52,0,0,0-1.67-3.79L276,205.75c-1.28-2.46-2.51-4.94-3.65-7.47a40.62,40.62,0,0,1-2.82-7.83,35.06,35.06,0,0,1-.76-8.3c0-1.39.1-2.77.11-4.15a25.66,25.66,0,0,0-.42-4.08,34.38,34.38,0,0,0-2.17-7.93c-1-2.53-2.47-5-3.15-7.71A13.82,13.82,0,0,1,262.65,154.07Z" style="fill:#b16668"></path><path d="M329.48,292.23a5,5,0,0,1-2.51,2,9.91,9.91,0,0,1-3.15.52,18.74,18.74,0,0,1-6.3-1.29,29,29,0,0,1-5.75-3,38.28,38.28,0,0,1-5.16-4,49.18,49.18,0,0,1-8.42-10,54.76,54.76,0,0,1-5.73-11.83c-2.95-8.31-4.3-17.09-6.17-25.71q-1.38-6.48-3.12-12.88c-1.14-4.27-2.44-8.49-3.56-12.77,1.07,4.29,2.32,8.53,3.42,12.8s2.12,8.58,3,12.9c1.78,8.64,3,17.44,5.88,25.85a55.07,55.07,0,0,0,5.72,12c.59.94,1.19,1.88,1.86,2.76l1,1.35,1,1.3a46.69,46.69,0,0,0,4.42,5,39.23,39.23,0,0,0,5.21,4.22,28.79,28.79,0,0,0,6,3,16.84,16.84,0,0,0,6.68,1,8.79,8.79,0,0,0,3.29-.84A4.84,4.84,0,0,0,329.48,292.23Z" style="fill:#f28f8f"></path><path d="M286.8,163.8a53.86,53.86,0,0,0-1.32-6.45,16.08,16.08,0,0,0-3.25-5.84,120,120,0,0,0-8.91-9.29c2.4,3.66,5.25,6.67,8,10a18.34,18.34,0,0,1,3.31,5.38C285.42,159.63,286,161.76,286.8,163.8Z" style="fill:#f0997a"></path><path d="M266.82,143.21a2,2,0,0,1,1.64.13,4.07,4.07,0,0,1,1.1,1.26c.62,1,1.07,2.05,1.65,3.1,1.13,2.1,2.17,3.63,3.4,5.64a27.86,27.86,0,0,1,1.73,3c.47,1,.87,2.16,1.32,3.25q1.29,3.3,2.74,6.55c-.54-2.31-1.16-4.6-1.88-6.86-.35-1.13-.72-2.24-1.16-3.38a25.92,25.92,0,0,0-1.75-3.17c-1.26-2-2.34-3.51-3.61-5.49a35.77,35.77,0,0,0-2-3,4.45,4.45,0,0,0-1.42-1.19A2,2,0,0,0,266.82,143.21Z" style="fill:#f0997a"></path><path d="M265.23,150.79a1.89,1.89,0,0,1,1.26.41,4,4,0,0,1,.84,1,20.88,20.88,0,0,1,1.25,2.45c.71,1.71,4.5,8.87,4.9,9.69.8,1.66,1.49,3.4,2.21,5.15a25.84,25.84,0,0,0-1.37-5.51,39.68,39.68,0,0,0-2.39-5c-.94-1.61-1.64-3-2.54-4.7a14.37,14.37,0,0,0-1.6-2.38,4.5,4.5,0,0,0-1.13-.95A1.81,1.81,0,0,0,265.23,150.79Z" style="fill:#f0997a"></path><path d="M293.75,164c.25,2.26.61,4.46,1,6.67a60.48,60.48,0,0,0,1.53,6.56,36.8,36.8,0,0,0-.66-6.72A31,31,0,0,0,293.75,164Z" style="fill:#f0997a"></path><path d="M266.12,155.72,255,160.16l-2.55-21.62C256.55,137.25,261.41,147.32,266.12,155.72Z" style="fill:#f0997a"></path><path d="M246.65,127.38a2.34,2.34,0,0,0-.86-.31c-.23,0-.56,0-.64.3a.45.45,0,0,0,.06.34c0,.05.29.28.32.22-.12,0-.1.09.07.13l.14.07.28.15a3.19,3.19,0,0,1,.44.31,2,2,0,0,1,.58.87,3.08,3.08,0,0,1,.13,1c0,.18,0,.36,0,.55v.24a.46.46,0,0,0,.08.27,2.63,2.63,0,0,0,.08.68c.06.18.3.4.47.21a1.2,1.2,0,0,0,.21-.34,4.83,4.83,0,0,0,.37-.88,4,4,0,0,0,.1-1,3.21,3.21,0,0,0-.5-1.68A3.28,3.28,0,0,0,246.65,127.38ZM258.29,130c0-.07,0-.15,0-.22a2.35,2.35,0,0,1,.14-.45v0l0-.09.11-.18a4.43,4.43,0,0,0,.41-.65c.19-.47-.4-.79-.79-.65l-.62.44-.06.07-.08.09c-.05.07-.1.14-.14.21a3.82,3.82,0,0,0-.26.54,3.45,3.45,0,0,0-.25,1.1,3.27,3.27,0,0,0,.09,1.12,2.26,2.26,0,0,0,.36.73l.15.21a1.11,1.11,0,0,0,.46.34c.3.12.86,0,.78-.43a1,1,0,0,0-.08-.34s-.06-.12-.05-.09a1.16,1.16,0,0,1-.11-.27c0-.15-.08-.34-.12-.51l0-.13h0a2,2,0,0,1,0-.23,3.84,3.84,0,0,1,0-.48S258.29,130,258.29,130Z" style="fill:#f0997a"></path></g><path d="M332,422.27c-2.4-2.88-5.22-8.77-6-15.07-1-8.05-2.75-26.42-4.73-44.13s-5.53-57.72-9.84-80.16c-2.19-11.41-7.11-23.7-15.12-23.87-6.11-.12-23.15,4-29.42,26.44s-5.08,35,0,52.92c3.17,11.19,22.48,52.19,25.08,59.83s2.63,9.26,2.63,9.26v15.27Z" style="fill:#ffa8a7"></path><path d="M292,433.06c-.24,7.71,9.34,9.51,13.82,11.79,2.9,1.33,6.09,3.25,9,9,9.19,14.67,24.21,18.61,43.5,15.38,13.55-2.83,14.9-12.51,9.85-16.75C365.2,451.55,292,433.06,292,433.06Z" style="fill:#263238"></path><path d="M294.61,407.49c-1.3.12-2,.84-1.91,3.12.31,5.57-2.82,15.74-.71,22.45,4.09,8.56,17.78,8.38,22.65,14.75s9.43,14.36,24.79,17,26.81-2.57,29.51-7,0-8.45-9.93-13.46c-10.55-5.31-24.69-21.64-24.69-21.65a73.07,73.07,0,0,1-5-6.74,8.52,8.52,0,0,1-1-3.61l-.75-4.44a4.31,4.31,0,0,0-.65-1.92,3.55,3.55,0,0,0-2.25-1.16,16.93,16.93,0,0,0-6.37.36c-1.39.27-2.76.58-4.13.93a13.85,13.85,0,0,0-5.46,2.36,4.53,4.53,0,0,0-1.52,2,5.56,5.56,0,0,0-.24,1.82,33.35,33.35,0,0,0,.52,5.9c.08.46.06,1.08-.39,1.2a.88.88,0,0,1-.74-.31c-1-1-1.37-2.36-2.25-3.41-1.48-1.79-3.93-2.2-6-3a7.19,7.19,0,0,1-3.12-2.08Z" style="fill:#37474f"></path><path d="M329.43,461.4c-1.32-13,20.8-26.78,32.89-17.06,4.28,2.9,10.46,9,6.94,13.71C363.76,468.22,334.74,467.65,329.43,461.4Z" style="fill:#fafafa"></path><path d="M312.66,426.15c2.76-1.8,9.2-9.59,18.63-7.46C329.67,409.38,305.41,425,312.66,426.15Z" style="fill:#fafafa"></path><path d="M336.1,424.65c-3.42-8.33-19.27,4.76-19.13,5.64-1,1.41,1.34,2.75,2.23,1.37C320.42,429.86,328.19,423.19,336.1,424.65Z" style="fill:#fafafa"></path><path d="M349.17,437.4c-3.75-9.58-26.48,5.12-20,7C332,442.56,339.32,434,349.17,437.4Z" style="fill:#fafafa"></path><path d="M323.67,438.33c2.75-1.78,9-9.4,18.36-7.51C339,422,317,437.12,323.67,438.33Z" style="fill:#fafafa"></path><path d="M358.23,401.66c-1.42-5.57-13.09-28.85-18.28-39.39-6.37-12.94-19.05-39.23-19.63-63.09s5.36-33.54,11.69-40.77c7.29-8.33,20.79-9,26.83,3.33,15.29,31.12,21.19,79.9,23.87,97.59s6.42,44.46,6.42,44.46,2.11,7.77,6.48,13.33H358.24Z" style="fill:#ffa8a7"></path><path d="M245.32,394.19c20.67,2.55,43-10.41,55.24-19.21,14-10.1,32-24.16,32-24.16l21.45,42.73s8.65,3.79,20.67,1.38,14.41-8.52,14.41-8.52-7.27-49.56-11-68.38C372.37,289.5,368.66,276.36,366,269s-9.87-18.16-21.83-18.6-18.61,4.18-40.27,18.6c-14.68,9.76-68.82,61.15-74.41,68.06S210.82,389.93,245.32,394.19Z" style="fill:#37474f"></path><path d="M363.8,395.51c-.68-2-4.69-12.64-5.38-14.67-1.34-4-10.23-33.77-11.48-38.28q-2-7-3.43-14.16c-.88-4.23-1.62-8.5-2.23-12.78q-.46-3.27-.83-6.55c-.23-2.14-.33-4.32-.73-6.44a8.64,8.64,0,0,0-2.74-5.17,5.19,5.19,0,0,0-5-1.12,8,8,0,0,0-3.91,3.59c-1.2,1.9-2.29,3.88-3.35,5.85-4.38,8.09-8.09,16.51-12.47,24.59a89.22,89.22,0,0,1-14,19.87c-5.31,5.46-11.77,10.08-19.16,12.21a33.15,33.15,0,0,1-21.06-.68,24.35,24.35,0,0,1-8.88-5.95,30.37,30.37,0,0,1-3.94-5.3,51.25,51.25,0,0,1-2.64-5c-.83-1.8-1.65-3.61-2.49-5.41-.19-.42-1-.44-.84.14a61.63,61.63,0,0,0,5.16,11.48,27.16,27.16,0,0,0,7.68,8.45c5.84,4.05,13.19,5.5,20.2,4.9A39.89,39.89,0,0,0,292.8,357a67.46,67.46,0,0,0,15.74-17.43c4.9-7.49,8.71-15.61,12.65-23.63,2-4.1,4.09-8.19,6.35-12.16a21.87,21.87,0,0,1,3.37-5.11,3.53,3.53,0,0,1,4.84-.29c1.7,1.29,2.32,3.36,2.63,5.38.33,2.17.46,4.38.71,6.56q.74,6.42,1.87,12.79c1.28,7.21,3,14.38,4.85,21.44,3.47,13.13,7.3,26,11.57,38.91a96.25,96.25,0,0,0,4.64,12c.58.07,1.19.13,1.82.17C363.83,395.58,363.81,395.54,363.8,395.51Z" style="fill:#263238"></path><path d="M326.24,294.81c-6.67,16.19-5.81,38.18,1.27,59.95l5.09-3.94C324,330.4,325.39,307.63,326.24,294.81Z" style="fill:#263238"></path><path d="M215.76,400.58c15.29,3.22,29.51-1.33,40.67-11.43s18.07-29,18.07-29l15.95,39.56s8.65,3.79,20.67,1.38,14.41-8.52,14.41-8.52-3.66-52.18-6.13-71.22c-3.48-26.85-6.73-42.57-9.43-50s-11.2-16.93-23.16-17.37-21.84,5.22-34.13,17.86-50.73,58.8-56.31,65.71-21,30.3-21,30.3S181.75,393.4,215.76,400.58Z" style="fill:#455a64"></path><path d="M215.76,400.58c15.29,3.22,29.51-1.33,40.67-11.43s18.07-29,18.07-29l15.95,39.56s8.65,3.79,20.67,1.38,14.41-8.52,14.41-8.52-3.66-52.18-6.13-71.22c-3.48-26.85-6.73-42.57-9.43-50s-11.2-16.93-23.16-17.37-21.84,5.22-34.13,17.86-50.73,58.8-56.31,65.71-21,30.3-21,30.3S181.75,393.4,215.76,400.58Z" style="fill:#455a64"></path><path d="M299.85,401.79a91.57,91.57,0,0,1-4.79-12.36c-4.27-12.87-8.1-25.78-11.57-38.91-1.87-7.06-3.57-14.23-4.85-21.44q-1.14-6.37-1.87-12.79c-.25-2.18-.38-4.39-.71-6.56s-.93-4.09-2.63-5.38a3.53,3.53,0,0,0-4.84.29,21.87,21.87,0,0,0-3.37,5.11c-2.26,4-4.33,8.06-6.35,12.16-3.94,8-7.75,16.14-12.65,23.63A67.46,67.46,0,0,1,230.48,363a39.89,39.89,0,0,1-20.44,8.1c-7,.6-14.36-.85-20.2-4.9a27.16,27.16,0,0,1-7.68-8.45A61.63,61.63,0,0,1,177,346.24c-.2-.58.65-.56.84-.14.84,1.8,1.66,3.61,2.49,5.41a51.25,51.25,0,0,0,2.64,5,30.37,30.37,0,0,0,3.94,5.3,24.35,24.35,0,0,0,8.88,6,33.15,33.15,0,0,0,21.06.68c7.39-2.13,13.85-6.75,19.16-12.21a89.22,89.22,0,0,0,14-19.87c4.38-8.08,8.09-16.5,12.47-24.59,1.06-2,2.15-3.95,3.35-5.85a8,8,0,0,1,3.91-3.59,5.19,5.19,0,0,1,5,1.12,8.64,8.64,0,0,1,2.74,5.17c.4,2.12.5,4.3.73,6.44s.52,4.37.83,6.55c.61,4.28,1.35,8.55,2.23,12.78q1.47,7.14,3.43,14.16c1.25,4.51,10.14,34.29,11.48,38.28.69,2,4.7,12.63,5.38,14.67,0,.09.08.22.14.37Z" style="fill:#37474f"></path><path d="M262.63,301c-6.66,16.19-4.21,41.22,8.24,67.46,2.35-4.78,3.63-8.28,3.63-8.28C265.92,339.77,261.79,313.82,262.63,301Z" style="fill:#37474f"></path><path d="M358.24,427.62c.4,7.7,10.09,8.71,14.74,10.61,3,1.1,6.34,2.75,9.68,8.25,10.36,13.88,25.65,16.57,44.6,11.78,13.28-3.93,13.84-13.68,8.46-17.5C432.72,440.06,358.24,427.62,358.24,427.62Z" style="fill:#263238"></path><path d="M358.23,401.66c-1.1.54-1.42,1.27-1.11,3.53.76,5.53-1.53,15.91,1.12,22.43,4.77,8.19,18.41,6.89,23.78,12.84S392.6,454,408.11,455.34,434.62,450.59,437,446s-.68-8.42-11-12.6c-10.95-4.44-26.38-19.56-26.38-19.56a72.19,72.19,0,0,1-5.54-6.32,8.52,8.52,0,0,1-1.31-3.51l-1.11-4.36a4.27,4.27,0,0,0-.81-1.86,3.45,3.45,0,0,0-2.33-1,16.91,16.91,0,0,0-6.33.87c-1.36.39-2.7.81-4,1.27a14,14,0,0,0-5.26,2.79,4.66,4.66,0,0,0-1.35,2.14,6,6,0,0,0-.09,1.84,32.93,32.93,0,0,0,1,5.83c.11.45.14,1.08-.3,1.23a.84.84,0,0,1-.76-.25c-1.05-.87-1.56-2.24-2.52-3.22-1.62-1.66-4.1-1.87-6.21-2.52a7.14,7.14,0,0,1-3.27-1.82Z" style="fill:#37474f"></path><path d="M397.88,452.81c-2.39-12.87,18.54-28.4,31.38-19.7,4.5,2.54,11.16,8.15,8,13.1C432.65,456.8,403.68,458.59,397.88,452.81Z" style="fill:#fafafa"></path><path d="M378.28,419c2.6-2,8.39-10.31,18-9C393.87,400.93,371,418.44,378.28,419Z" style="fill:#fafafa"></path><path d="M401.52,415.63c-4.1-8-18.82,6.32-18.6,7.19-.84,1.47,1.56,2.62,2.33,1.18C386.32,422.1,393.52,414.82,401.52,415.63Z" style="fill:#fafafa"></path><path d="M415.58,427.27c-4.51-9.24-26,7.26-19.34,8.63C398.88,433.82,405.49,424.64,415.58,427.27Z" style="fill:#fafafa"></path><path d="M390.25,430.28c2.59-2,8.23-10.11,17.68-9C404.19,412.78,383.49,429.62,390.25,430.28Z" style="fill:#fafafa"></path></g></g><g id="freepik--Doodles--inject-138"><path d="M139.93,123.29a36.35,36.35,0,0,0-11.09,5.12,66.41,66.41,0,0,0-9,7.18c-5.19,5-9.71,11.31-10.23,18.7a6.27,6.27,0,0,0,1.51,5.08,7.48,7.48,0,0,0,4.31,1.86,20.23,20.23,0,0,0,10.77-2.1,39.25,39.25,0,0,0,9.45-6.45,40.23,40.23,0,0,0,7.59-8.62,19.54,19.54,0,0,0,2.3-5.05,2.05,2.05,0,0,0-.59-2.3,3.77,3.77,0,0,0-2.51-.49c-3.92.25-7.12,3.18-9.82,5.76A55.32,55.32,0,0,0,125,151a54.47,54.47,0,0,0-3.07,5.14,14.71,14.71,0,0,0-1.85,5.82,8.11,8.11,0,0,0,5.8,8c3.86,1.33,8.26.44,12-.95a28.37,28.37,0,0,0,9.58-6c2.65-2.5,5-5.68,5.44-9.4.18-1.56-.13-3.52-1.89-4s-3.36,1-4.55,2.13c-2.5,2.38-5.31,5.27-5.65,8.89-.26,2.82,1.1,6.11,3.87,7.19,3.49,1.37,6.67-1.4,8.48-4.12,1-1.47,1.81-3.23,1.27-5a.69.69,0,0,0-1-.33,7.56,7.56,0,0,0-3.18,5.65,4,4,0,0,0,.77,3,4.62,4.62,0,0,0,3.34,1.09,9.56,9.56,0,0,0,6.47-2.82,17,17,0,0,0,2.46-3,21.81,21.81,0,0,0,1.88-3.2,4.39,4.39,0,0,0,.28-3.35,2.92,2.92,0,0,0-2.18-1.91c-2.33-.39-4.11,2-4.79,3.93a15.4,15.4,0,0,0-.62,6.94,6,6,0,0,0,3.65,4.82,7.34,7.34,0,0,0,6.59-.45,10,10,0,0,0,4.28-5.93c.14-.45-.69-.94-.84-.44-1,3.22-3.94,6.55-7.56,6.41a5.35,5.35,0,0,1-4.2-2.15c-1.13-1.68-1-4.05-.78-6a8.66,8.66,0,0,1,1.85-5c.61-.68,1.76-1.58,2.73-1.06a2.31,2.31,0,0,1,.91,2.33,8.07,8.07,0,0,1-1.29,3,24.79,24.79,0,0,1-1.74,2.58,11.12,11.12,0,0,1-4.83,3.8,6.78,6.78,0,0,1-3.37.38,2.15,2.15,0,0,1-1.51-.74,3.09,3.09,0,0,1-.35-1.61,6.64,6.64,0,0,1,2.88-5.48l-1-.33c.5,1.81-.73,3.64-1.79,5a8.18,8.18,0,0,1-3.76,3c-2.83.88-4.94-1.54-5.44-4.11-.61-3.13,1.2-6,3.24-8.19a20,20,0,0,1,3.55-3.34c.59-.39,1.43-.79,2-.17a3,3,0,0,1,.43,2.22c-.29,3.37-2.44,6.32-4.8,8.6a26.71,26.71,0,0,1-8.34,5.5c-3.24,1.34-7,2.32-10.52,1.66-3.09-.58-5.93-2.84-6.18-6.13a10.83,10.83,0,0,1,1.28-5.37,41.14,41.14,0,0,1,2.54-4.54,53.29,53.29,0,0,1,6.44-8.3,50.19,50.19,0,0,1,3.87-3.71,16.54,16.54,0,0,1,4.16-2.78c.73-.32,4.22-1.49,4.13.09a7.21,7.21,0,0,1-.76,2.28,20.37,20.37,0,0,1-1.1,2.19,34.39,34.39,0,0,1-6.47,7.76,42.5,42.5,0,0,1-8.17,6.2,22.24,22.24,0,0,1-9.49,3.05c-2.72.16-6.23-.43-6.79-3.62a12.81,12.81,0,0,1,.37-4.81,22.68,22.68,0,0,1,1.56-4.53,32.1,32.1,0,0,1,5.37-7.89,56.15,56.15,0,0,1,7.33-6.7,55.24,55.24,0,0,1,8.82-5.76,32,32,0,0,1,5.82-2.29.46.46,0,0,0,.22-.68.73.73,0,0,0-.83-.27Z" style="fill:#455a64"></path><path d="M376.59,168.46a14,14,0,0,1-5.21,8.41c-6.07,4.8-14.08,4.69-21.42,4.34a12.62,12.62,0,0,0-4.62.42,5.64,5.64,0,0,0-3.2,2.94c-.73,1.44-1.3,3-2.87,3.77a8.44,8.44,0,0,1-4.78.29c-2.74-.42-6.28-1.29-8.56.84-1.23,1.16-1.43,2.84-2.28,4.22a5.1,5.1,0,0,1-3.43,2.24,6,6,0,0,1-1.53.12,5.17,5.17,0,0,0,3.12-2.71c1.5-2.91,1.07-6.94,3.59-9.3a8.92,8.92,0,0,1,4.19-1.84,14.53,14.53,0,0,0,4.38-1.57c3.4-2.14-.67-6.52-2.46-8.33A32,32,0,0,1,325,164a16.62,16.62,0,0,1-1.6-10c1.2-7.13,8.87-10.9,15.26-12.32A33.57,33.57,0,0,1,359.81,144a36.94,36.94,0,0,1,8.87,5.74,25.44,25.44,0,0,1,6.44,8.23A17.5,17.5,0,0,1,376.59,168.46Z" style="fill:#fff"></path><path d="M377.78,164.19c-.53-7.16-5.25-13-10.82-17.17a35.59,35.59,0,0,0-20.37-7.14c-7.06-.15-14.69,1.78-20.06,6.56a13.25,13.25,0,0,0-3.14,3.95,12.9,12.9,0,0,0-1.28,4.71,18.26,18.26,0,0,0,2.18,10,25.38,25.38,0,0,0,3,4.35c1.15,1.38,2.46,2.6,3.71,3.89a12.16,12.16,0,0,1,3,4.31,2.43,2.43,0,0,1,.15,1.3,1.86,1.86,0,0,1-1,1.07,10.2,10.2,0,0,1-2.18.86,32.27,32.27,0,0,0-4.49,1.37,6.52,6.52,0,0,0-3.27,3.33,28.2,28.2,0,0,0-1.29,4.81c-.38,1.57-.95,3.35-2.31,4.37a3.86,3.86,0,0,1-3.25.69l-.11-.06a.48.48,0,0,0-.15,0,2.1,2.1,0,0,1-.68-.49c-.25-.29-.77-.08-.47.26a3.21,3.21,0,0,0,1.14.83l.05,0a6.61,6.61,0,0,0,7.49-.82c1.22-1.15,1.46-2.78,2.29-4.16a4.57,4.57,0,0,1,4-2.07c3.12-.08,6.31,1.43,9.39.33a5.69,5.69,0,0,0,3.15-3.18c.73-1.52,1.42-2.95,3.08-3.61a11.56,11.56,0,0,1,4.86-.43c2,.11,4.1.21,6.15.16a29.71,29.71,0,0,0,11.07-2.1,17.66,17.66,0,0,0,7.65-6A15.3,15.3,0,0,0,377.78,164.19Zm-1.19,4.27a14,14,0,0,1-5.21,8.41c-6.07,4.8-14.08,4.69-21.42,4.34a12.62,12.62,0,0,0-4.62.42,5.64,5.64,0,0,0-3.2,2.94c-.73,1.44-1.3,3-2.87,3.77a8.44,8.44,0,0,1-4.78.29c-2.74-.42-6.28-1.29-8.56.84-1.23,1.16-1.43,2.84-2.28,4.22a5.1,5.1,0,0,1-3.43,2.24,6,6,0,0,1-1.53.12,5.17,5.17,0,0,0,3.12-2.71c1.5-2.91,1.07-6.94,3.59-9.3a8.92,8.92,0,0,1,4.19-1.84,14.53,14.53,0,0,0,4.38-1.57c3.4-2.14-.67-6.52-2.46-8.33A32,32,0,0,1,325,164a16.62,16.62,0,0,1-1.6-10c1.2-7.13,8.87-10.9,15.26-12.32A33.57,33.57,0,0,1,359.81,144a36.94,36.94,0,0,1,8.87,5.74,25.44,25.44,0,0,1,6.44,8.23A17.5,17.5,0,0,1,376.59,168.46Z" style="fill:#455a64"></path><path d="M343.33,150.9a40.63,40.63,0,0,0,3.52,5c1.12,1.55,2.25,3.09,3.36,4.64s2.15,3,3.21,4.54,2.1,3.17,3.23,4.69a.61.61,0,0,0,.58.19c1.13-.21.19-1.36-.17-1.89q-.84-1.25-1.71-2.49-1.8-2.6-3.64-5.16c-1.17-1.63-2.34-3.26-3.55-4.86a41.36,41.36,0,0,0-4.13-5.09c-.31-.3-.94-.07-.7.39Z" style="fill:#455a64"></path><path d="M361.21,154.4q-6.21,2-12.37,4.08c-2,.7-4.07,1.42-6.1,2.13l-3.05,1.07c-.92.32-2.41.57-3,1.37a.32.32,0,0,0,.08.4c.63.53,1.81-.1,2.46-.33l3.05-1.06,6.21-2.18,6.45-2.27c2.25-.8,4.46-1.72,6.7-2.57.42-.15-.06-.75-.4-.64Z" style="fill:#455a64"></path><path d="M143.15,260.49a5.68,5.68,0,0,1-1.71,2.63c-1.93,1.66-4.87,2.08-7.34,2h0c-4.05-.31-8.36-3.26-8.78-7.54-.09-.91.1-1.82,0-2.73a4.14,4.14,0,0,0-.84-2,7.64,7.64,0,0,0-4.91-2.39,51.52,51.52,0,0,0-7-.47c-2.51,0-5,0-7.52,0a59.1,59.1,0,0,1-13.4-1.25,26.19,26.19,0,0,1-10.22-4.73,22,22,0,0,1-6.58-9.76,31.58,31.58,0,0,1,1-23.55,40.26,40.26,0,0,1,15.06-17.19c7-4.53,16.23-7.44,24.37-4.15,7.37,3,12.64,10,15.41,17.26a28.35,28.35,0,0,1,2,12.78,23,23,0,0,1-1.54,6.26c-.82,2.08-1.84,4.09-2.59,6.2-1.18,3.32-1.63,7.3.33,10.44a7,7,0,0,0,1.73,1.91,16,16,0,0,0,2.43,1.34,3.67,3.67,0,0,1,1.93,1.87,4.26,4.26,0,0,1-.07,2.71c-.55,1.88-1.78,3.44-2.45,5.27-.56,1.56-.9,3.41,0,4.92s2.92,2.12,4.64,2.24a8.89,8.89,0,0,0,5-1.08A5.83,5.83,0,0,0,143.15,260.49Z" style="fill:#fff"></path><path d="M143.5,257.78c-1,3.39-5.6,4.19-8.5,2.93-4.27-1.87.13-7.36,1-10,.61-1.76.77-3.8-.58-5.26s-3.3-1.67-4.61-3c-2.63-2.72-2.21-7-1-10.31.75-2.12,1.77-4.12,2.6-6.21a23.77,23.77,0,0,0,1.59-6.27,29.29,29.29,0,0,0-1.72-12.88c-2.63-7.37-7.78-14.52-14.95-18-8-3.87-17.12-2-24.57,2.14a42.43,42.43,0,0,0-16.39,15.95,33.3,33.3,0,0,0-4,22.71,28.59,28.59,0,0,0,4.72,11.27,21.21,21.21,0,0,0,9,6.91c8.3,3.59,17.44,2.89,26.27,3a43.64,43.64,0,0,1,7.4.52c1.71.32,3.78,1.09,4.32,2.95a10.38,10.38,0,0,1,.09,2.67,7.86,7.86,0,0,0,.61,2.84,9.27,9.27,0,0,0,3.77,4.23,12.39,12.39,0,0,0,5.72,1.85h0a13.37,13.37,0,0,0,4.88-.4,8.4,8.4,0,0,0,3.18-1.71,7.41,7.41,0,0,0,2.34-5.88C144.69,257.26,143.67,257.22,143.5,257.78Zm-2.06,5.34c-1.93,1.66-4.87,2.08-7.34,2h0c-4.05-.31-8.36-3.26-8.78-7.54-.09-.91.1-1.82,0-2.73a4.14,4.14,0,0,0-.84-2,7.64,7.64,0,0,0-4.91-2.39,51.52,51.52,0,0,0-7-.47c-2.51,0-5,0-7.52,0a59.1,59.1,0,0,1-13.4-1.25,26.19,26.19,0,0,1-10.22-4.73,22,22,0,0,1-6.58-9.76,31.58,31.58,0,0,1,1-23.55,40.26,40.26,0,0,1,15.06-17.19c7-4.53,16.23-7.44,24.37-4.15,7.37,3,12.64,10,15.41,17.26a28.35,28.35,0,0,1,2,12.78,23,23,0,0,1-1.54,6.26c-.82,2.08-1.84,4.09-2.59,6.2-1.18,3.32-1.63,7.3.33,10.44a7,7,0,0,0,1.73,1.91,16,16,0,0,0,2.43,1.34,3.67,3.67,0,0,1,1.93,1.87,4.26,4.26,0,0,1-.07,2.71c-.55,1.88-1.78,3.44-2.45,5.27-.56,1.56-.9,3.41,0,4.92s2.92,2.12,4.64,2.24a8.89,8.89,0,0,0,5-1.08,5.83,5.83,0,0,0,1.17-.87A5.68,5.68,0,0,1,141.44,263.12Z" style="fill:#455a64"></path><path d="M84.53,219.06c4.78.58,9.62.77,14.41,1.1s9.6.64,14.4.93l8.23.52a.71.71,0,0,0,.12-1.41c-9.58-.57-19.16-1.16-28.75-1.64-2.83-.14-5.67-.31-8.51-.32-.58,0-.37.76.1.82Z" style="fill:#455a64"></path><path d="M107.39,201.34a23.37,23.37,0,0,0-1.07,3.67l-.92,3.53q-.91,3.59-1.85,7.17c-1.22,4.72-2.42,9.44-3.63,14.17L97.85,238c-.16.6,1,.74,1.12.14q3.65-14.2,7.26-28.41c.33-1.32.67-2.65,1-4a24,24,0,0,0,.91-4.16c0-.37-.6-.61-.76-.24Z" style="fill:#455a64"></path><path d="M362.77,193.85a9.45,9.45,0,0,0-2.5,2.1c-.81.81-1.6,1.63-2.39,2.46-1.59,1.68-3.14,3.4-4.62,5.18a115.2,115.2,0,0,0-8.1,10.93c-.71,1.07-1.39,2.16-2.06,3.26a16.16,16.16,0,0,0-2,3.6c-.24.79.8,1.09,1.28.61a14.6,14.6,0,0,0,1.89-3c.6-1,1.22-2,1.85-3,1.2-1.85,2.44-3.65,3.73-5.43a122.61,122.61,0,0,1,8.32-10.15c.84-.91,1.68-1.81,2.55-2.69a19.7,19.7,0,0,0,2.84-3.08c.31-.5-.32-1.08-.83-.85Z" style="fill:#455a64"></path><path d="M339.45,227.4a1.29,1.29,0,0,0-1.93.71,1.85,1.85,0,0,0,.75,1.89,1.94,1.94,0,0,0,2.14.15,1.59,1.59,0,0,0,.77-1.75,1.52,1.52,0,0,0-.69-.85,1.4,1.4,0,0,0-.61-.18,1,1,0,0,0-.56,0c-.15.08-.28.15-.32.33a.41.41,0,0,0,.37.45h.14l-.2,0,.23.08h.15c.08,0-.14,0,0,0s0,0,0,0l.06,0,.14.08.06,0,0,0,.09.08s.08.09,0,0h0l.08.13s0-.1,0,0a.14.14,0,0,0,0,.06s0,.05,0,.07,0,0,0,0a.65.65,0,0,1,0,.14.13.13,0,0,1,0,.06c0,.12,0-.1,0,0s0,.08,0,.13,0,.11,0,0,0,0,0,0l-.09.12-.05.06s.08-.07,0,0l-.12.1s-.07,0,0,0l-.06,0a.5.5,0,0,0-.13.05c0-.05.12,0,0,0l-.08,0c-.12,0,.11,0,0,0h-.14c-.08,0-.05,0,0,0a.7.7,0,0,0-.14,0l-.07,0c-.12,0,.12.06,0,0l-.13-.07-.06,0s.1.08,0,0l-.12-.1s0,0-.05,0,0,0,0,0l0,0a2.13,2.13,0,0,1-.16-.25c0-.07,0,0,0,0a.36.36,0,0,0,0-.07c0-.06,0-.13,0-.19s0,0,0,0v-.2s0-.12,0-.05a.25.25,0,0,0,0-.07s.05-.1,0,0l0-.05c.05-.07-.06,0,0,0l.05,0c-.05,0,0,0,0,0s0,0-.05,0l.07,0h0s.12,0,0,0,0,0,0,0-.12-.06,0,0a.64.64,0,0,0,.8-.09.46.46,0,0,0-.14-.68Z" style="fill:#455a64"></path><path d="M52.89,144.87a11.51,11.51,0,0,0,1.55,3.29c.56,1,1.13,2,1.71,3,1.16,1.94,2.36,3.85,3.63,5.72a117.57,117.57,0,0,0,8.11,10.61c.81,1,1.65,1.89,2.49,2.81.48.52,1,1,1.44,1.54a6,6,0,0,0,1.56,1.42.79.79,0,0,0,1-1.08,6.43,6.43,0,0,0-1.1-1.29c-.41-.42-.81-.85-1.21-1.28-.75-.81-1.49-1.63-2.21-2.46-1.48-1.69-2.91-3.43-4.28-5.2A119.23,119.23,0,0,1,58,150.88c-.66-1.1-1.31-2.2-1.94-3.32-.3-.54-.61-1.08-.9-1.63a5.45,5.45,0,0,0-1.08-1.63c-.39-.33-1.27,0-1.17.57Z" style="fill:#455a64"></path><path d="M78.64,176.59a1.06,1.06,0,0,0-.42,1,1.23,1.23,0,0,0,.6.87,2,2,0,0,0,2.11-.11,1.76,1.76,0,0,0,.84-1.56,1.72,1.72,0,0,0-1.2-1.51,1.54,1.54,0,0,0-1.17.11,1.28,1.28,0,0,0-.76,1.08.47.47,0,0,0,.29.39l.06,0-.29-.35a1.11,1.11,0,0,0,.32.5c.08.07.26.12.35,0a2,2,0,0,0,.34-.52.79.79,0,0,1,.14-.17s.05,0,0,0l.06-.05,0,0,.05,0-.05,0s.1-.05.12-.06,0,0,0,0l.06,0h.1c.06,0-.15,0,0,0l.06,0c.07,0-.1-.06,0,0l.12.07c.06,0,0,0,0,0s0,0,0,0,.08.11.11.12-.06-.08,0,0a.21.21,0,0,0,0,.06s.05.08.07.13,0-.1,0,0l0,.08s0,.1,0,.15,0,0,0,0V177s0,.05,0,.07,0,0,0,0a.49.49,0,0,1,0,.16.2.2,0,0,1,0,.08s0,.06,0,0,0,0,0,0l0,.07a.76.76,0,0,1-.08.11s0,0,0,0l-.08.07-.11.09,0,0-.06,0-.14.07-.07,0s.14,0,0,0l-.16,0c-.06,0,0,0,0,0h-.07a.76.76,0,0,0-.15,0s.13,0,0,0a.38.38,0,0,1-.1,0l-.07,0,.06,0,0,0-.06,0c-.1-.05.08.08,0,0l0-.05c-.08-.07,0,.09,0,0l0-.06c0-.08,0,.1,0,0s0,0,0-.06v0c0-.06,0,0,0,0a.61.61,0,0,0,0-.14c0-.06-.05.11,0,0s0,0,0-.06-.08.08,0,0,.1-.09,0,0a.46.46,0,0,0,.2-.32.42.42,0,0,0-.13-.35.64.64,0,0,0-.8-.09Z" style="fill:#455a64"></path><path d="M172.59,85.39a11.92,11.92,0,0,0-13.73-1.11,10.79,10.79,0,0,0-5,6c-.67,2.33-.2,5.23,2.29,6.21.56.22,1.12-.43.49-.74-2.12-1-1.91-4.32-1.07-6.13a10,10,0,0,1,5.22-4.81,10.38,10.38,0,0,1,7.3-.33,11.5,11.5,0,0,1,7.44,12.24,9,9,0,0,1-4.59,6.56c-2.63,1.52-5.63,2.33-8.09,4.16-2.12,1.58-4,4.27-3.44,7s3.72,5.28,6.5,3.45a3.11,3.11,0,0,0,1.47-3.44,2.66,2.66,0,0,0-3.48-1.71.39.39,0,0,0-.16.57.62.62,0,0,0,.66.26,1.65,1.65,0,0,1,1.46.87,1.61,1.61,0,0,1-.32,2,2.46,2.46,0,0,1-3.32-.13c-2.14-1.85-1.31-4.84.36-6.67,2-2.22,5.12-3.09,7.75-4.38a11.65,11.65,0,0,0,6-5.72A12.65,12.65,0,0,0,172.59,85.39Z" style="fill:#455a64"></path><path d="M165.18,126.91a1.62,1.62,0,0,0-.25-.51.52.52,0,0,0-.1-.11.76.76,0,0,0-.37-.21,1.23,1.23,0,0,0-.5-.09.21.21,0,0,0-.17.12c-.11.37,0,.49.14.72l0,0a2.68,2.68,0,0,1,.07.27.09.09,0,0,1,0,0v0h0s0,0,0,0,0,0,0,.07v.13a.13.13,0,0,0,0,.06c0,.07,0,.06,0,0a2.25,2.25,0,0,0-.08.24l0,0-.08.11v0l-.09.06h0v0h0l-.06,0-.11,0h-.18l-.14,0-.05,0a.57.57,0,0,1-.13-.08h0l-.05,0-.1-.09,0,0-.07-.11,0-.06h0v0l0-.13s0,0,0-.08,0-.09,0-.14,0-.06,0-.09v0s0,0,0,0l0-.11.07-.15,0-.06v0l.12-.15a1.54,1.54,0,0,1,.31-.25l.13-.07.22-.12h.06a.3.3,0,0,0,.24-.42.5.5,0,0,0-.42-.31,1,1,0,0,0-.51,0l-.29.1a1.76,1.76,0,0,0-.42.24,2.18,2.18,0,0,0-.65.82,1.77,1.77,0,0,0,.29,1.88,2.11,2.11,0,0,0,1.78.71,1.64,1.64,0,0,0,1.38-1.09A1.86,1.86,0,0,0,165.18,126.91Z" style="fill:#455a64"></path><path d="M163.74,127.93s0,0,0,0l0,0Z" style="fill:#455a64"></path><path d="M164,127.19v0Z" style="fill:#455a64"></path><path d="M416.73,222.23a17.39,17.39,0,0,0-8.22-16,22.19,22.19,0,0,0-19.16-1.64c-6,2.22-11.06,7.06-12.18,13.52a14.39,14.39,0,0,0,1.37,9.32,17.49,17.49,0,0,0,6.61,6.45,20.08,20.08,0,0,0,8.54,3.1c2.82.21,5.78-1.06,6.71-3.92.84-2.62-.16-5.48-1.66-7.65a12.18,12.18,0,0,0-7.42-4.74,12.86,12.86,0,0,0-8.92,1,13.09,13.09,0,0,0-5.33,6.21,14.12,14.12,0,0,0-1,10,9.82,9.82,0,0,0,5.73,6.33,4.63,4.63,0,0,0,4.15-.32,3,3,0,0,0,1-3.54c-1-2.72-4.17-3.88-6.88-3.72a7.47,7.47,0,0,0-6.46,4,6.5,6.5,0,0,0,1,6.77,5.41,5.41,0,0,0,3.14,1.83.46.46,0,1,0,.17-.89c-2.19-.43-3.5-2.73-3.63-4.82a5.32,5.32,0,0,1,3.34-5.23,6.77,6.77,0,0,1,6.9.73c.83.72,1.69,2,1.33,3.12-.41,1.35-2,1.36-3.12,1-2.5-.72-4.35-3.07-5.19-5.44a13.93,13.93,0,0,1,4.95-14.6,10.92,10.92,0,0,1,7.57-1.34,11.27,11.27,0,0,1,6.91,3.68c1.46,1.77,2.59,4.25,2.19,6.59-.44,2.65-3,3.69-5.39,3.51a18.67,18.67,0,0,1-7.78-2.92,16.55,16.55,0,0,1-5.87-5.53,12.71,12.71,0,0,1-1.6-8.12c.69-5.65,4.71-10.1,9.74-12.44a21.47,21.47,0,0,1,16.79-.5,17.05,17.05,0,0,1,10.41,12.27,14.92,14.92,0,0,1,.22,3.89c0,.55,1,.63,1,0Z" style="fill:#455a64"></path><path d="M107.51,318.47A15,15,0,0,1,83.6,302.56a20.74,20.74,0,0,1,12.87-13.17c5.8-2.12,13-1.75,18,2.27a10.7,10.7,0,0,1,4.11,8.36,7.27,7.27,0,0,1-4.48,6.93,6,6,0,0,1-7.31-2c-1.79-2.73-1.2-6.3.53-8.89a17.42,17.42,0,0,1,8.17-6.15,14.27,14.27,0,0,1,10.11-.39,11,11,0,0,1,6.41,6.06,6.71,6.71,0,0,1,.38,4.1c-.29,1.15-1,2.5-2.23,2.81-1.56.39-2.84-1-3.5-2.24a8.21,8.21,0,0,1-.88-4.1,9.51,9.51,0,0,1,3.8-7.37,9,9,0,0,1,8.07-.94c2.77,1,5.63,3.59,5.57,6.73,0,1.61-1.13,3.4-2.88,3.46-.72,0-.52.94.14.92a4.19,4.19,0,0,0,3.83-3,6.49,6.49,0,0,0-1.13-5.46,10.53,10.53,0,0,0-8.31-4.38,9.85,9.85,0,0,0-8.37,4,10.67,10.67,0,0,0-1.65,9.26,6.5,6.5,0,0,0,3,4,3.76,3.76,0,0,0,4.21-.62c2.49-2.27,2.1-6.13.65-8.83a12.61,12.61,0,0,0-8-6,17.08,17.08,0,0,0-11.64,1.7c-3.36,1.69-6.55,4.32-8,7.85-1.34,3.16-.94,7.31,1.8,9.63,2.41,2.05,6,1.95,8.71.51a8.82,8.82,0,0,0,4.32-8.58c-.62-7.89-8.74-12-15.9-12.11a23.11,23.11,0,0,0-18.19,8.73,18.79,18.79,0,0,0-4.12,10.66,16.53,16.53,0,0,0,3,9.86,15.57,15.57,0,0,0,8.3,6.11,16.84,16.84,0,0,0,10.77-.45,14.5,14.5,0,0,0,4.48-2.69c.44-.4-.26-1-.67-.68Z" style="fill:#455a64"></path><path d="M236.45,41.62c-4.7-3.95-11.14-.88-14.38,3.42a10.14,10.14,0,0,0-2.33,7.16c.37,2.9,2.71,4.84,5.33,5.78a16.45,16.45,0,0,0,2.92.74,16.27,16.27,0,0,0,3.48.38,11.26,11.26,0,0,0,6.27-2.3,11.9,11.9,0,0,0,4.58-12c-.49-2.09-2.38-3.95-4.06-5.17a18.45,18.45,0,0,0-6.21-2.8,17.91,17.91,0,0,0-13.65,1.47,17.06,17.06,0,0,0-5.23,4.81,25.29,25.29,0,0,0-3.11,6.4,20.67,20.67,0,0,0-.63,12.13,15.35,15.35,0,0,0,6.24,8.95,16.36,16.36,0,0,0,11.94,2,16.16,16.16,0,0,0,7.17-2.88,11.44,11.44,0,0,0,4.32-6.11,9.91,9.91,0,0,0-1.33-7.5,16.07,16.07,0,0,0-6.27-5.31,28.17,28.17,0,0,0-17.43-3.15,22.19,22.19,0,0,0-7.83,2.47,20.25,20.25,0,0,0-5.82,5C197,59.53,195,65.45,196.33,71A14.61,14.61,0,0,0,206,81.09a24.27,24.27,0,0,0,10.37,1,27.63,27.63,0,0,0,10.57-3c2.86-1.55,5.37-4,6.06-7.25a6.84,6.84,0,0,0-.57-4.89,12.37,12.37,0,0,0-3.93-4,20.71,20.71,0,0,0-11.7-3.7,11.09,11.09,0,0,0-2.69.35A5.24,5.24,0,0,0,211.61,61a6.52,6.52,0,0,0-1.83,5.24,11,11,0,0,0,2.29,5.54,13.3,13.3,0,0,0,2.24,2.32,18.31,18.31,0,0,0,2.73,1.7,27.25,27.25,0,0,0,15.52,3.44c5.2-.49,10.7-2.76,13.47-7.41A8.17,8.17,0,0,0,247,65a8.3,8.3,0,0,0-2.55-3.61,10.75,10.75,0,0,0-7.93-2.4c-2.57.31-4.85,1.84-5.15,4.57-.38,3.44,1.8,6.94,4.41,9a16.11,16.11,0,0,0,19.39-.39,11.61,11.61,0,0,0,4.06-9.83c-.72-8-9.54-15.68-17.68-13.6a6.72,6.72,0,0,0-2.84,1.44,10.33,10.33,0,0,0-2.1,2.37,8.35,8.35,0,0,0-1.33,5,9.35,9.35,0,0,0,6.29,7.91,14.19,14.19,0,0,0,6.37.59,12,12,0,0,0,5.56-1.95,9.62,9.62,0,0,0,3.83-9.1c-.51-4.48-3.57-8.05-6.67-11.08-3.81-3.73-8.51-6.81-13.82-7.81a21.45,21.45,0,0,0-13.9,2.45,15.61,15.61,0,0,0-8.11,10.55c-.78,4-.38,8.83,2.9,11.66,1.75,1.51,4.12,2.07,6.34,2.51a19.36,19.36,0,0,0,5.93.32,10.34,10.34,0,0,0,8-4.72c1.94-3.25,1.81-7.31,1-10.88a15.1,15.1,0,0,0-1-3.43,17.53,17.53,0,0,0-1.75-2.83,20.35,20.35,0,0,0-4.66-4.46,29.44,29.44,0,0,0-12.56-4.73,35.23,35.23,0,0,0-6.65-.34,32.8,32.8,0,0,0-3.28.32,11.63,11.63,0,0,0-3,.93,23.16,23.16,0,0,0-9.68,8.21,18.09,18.09,0,0,0-3.36,11.7,13,13,0,0,0,1.92,5.7,22.39,22.39,0,0,0,4.9,5.15c7.83,6.58,18.77,10,28.93,8.24a23.23,23.23,0,0,0,6.89-2.21,15,15,0,0,0,4.71-4,18.33,18.33,0,0,0,2.23-17.73,15.4,15.4,0,0,0-4-5.52,22.58,22.58,0,0,0-13.6-5.67,17.65,17.65,0,0,0-12.46,3.6,16.2,16.2,0,0,0-5.69,10.23A15.39,15.39,0,0,0,210.05,63a25.62,25.62,0,0,0,11.27,7.66A32,32,0,0,0,235,72.28a30.11,30.11,0,0,0,6.83-1.44,29.21,29.21,0,0,0,3-1.23,16.21,16.21,0,0,0,3-2c7.08-5.54,12-15.2,9.41-24.24A18.1,18.1,0,0,0,254,37.15a19.76,19.76,0,0,0-5.54-4.45,31.57,31.57,0,0,0-14.12-4.29c-4.69-.26-9.7.53-13.74,3.07a16.81,16.81,0,0,0-7.23,9.68,18.7,18.7,0,0,0,3.76,17.08,27.85,27.85,0,0,0,5.33,4.54c4.5,3.18,9.93,5.31,15.5,5.08a17.07,17.07,0,0,0,11.71-5.65,11.33,11.33,0,0,0,2.75-5.44,9.26,9.26,0,0,0,0-3.15,6.69,6.69,0,0,0-1.22-3.16,31.4,31.4,0,0,0-6.08-5.12,21.83,21.83,0,0,0-7.36-3.18,11.54,11.54,0,0,0-7.49.69,11.15,11.15,0,0,0-4.32,4.27c-2.1,3.56-2.79,8.33-.78,12.09,1.79,3.36,6.12,4.27,9.37,2.6a7.62,7.62,0,0,0,3.81-9.2c-.16-.48-1.16-.54-1,0a7,7,0,0,1-4.05,8.69,5.86,5.86,0,0,1-4.88-.13,6.41,6.41,0,0,1-3.2-4.57,12.82,12.82,0,0,1,3.13-11.05,8.44,8.44,0,0,1,5.5-2.77,14.7,14.7,0,0,1,7.38,1.39,27,27,0,0,1,6.5,4.22A17.61,17.61,0,0,1,250.41,51a6.85,6.85,0,0,1,1,3.09c.49,4.09-2.17,7.72-5.37,9.95a17,17,0,0,1-5.68,2.58,17.35,17.35,0,0,1-6.62.13A23.81,23.81,0,0,1,226,64a36.56,36.56,0,0,1-6.22-4.32,17.85,17.85,0,0,1-4.59-20.63,16,16,0,0,1,8.53-8.13,25.1,25.1,0,0,1,13.4-1.37,29.93,29.93,0,0,1,12.64,5,24.82,24.82,0,0,1,2.59,2.08,12.53,12.53,0,0,1,2.09,2.77,16.85,16.85,0,0,1,2.22,6.1C258,54.16,252.89,62.9,246,67.74c-3.46,2.42-7.94,3.46-12.1,3.74a30.66,30.66,0,0,1-12.84-1.87A24.32,24.32,0,0,1,210.7,62.3a14.55,14.55,0,0,1-2.93-11,15.32,15.32,0,0,1,5.38-9.63,16.56,16.56,0,0,1,11.73-3.41,21.32,21.32,0,0,1,12.7,5.21,14.36,14.36,0,0,1,3.87,5.2,17.55,17.55,0,0,1-1.83,16.69,14.4,14.4,0,0,1-4.19,3.89,20,20,0,0,1-6.22,2.24c-9.53,2-19.87-.91-27.55-6.73-3.41-2.58-6.68-5.59-7.58-9.94a16.23,16.23,0,0,1,2.1-11,22.77,22.77,0,0,1,8.47-8.57,20.09,20.09,0,0,1,2.69-1.28,11.71,11.71,0,0,1,2.86-.63,33,33,0,0,1,6.21-.13c7.93.58,17,4.07,20.56,11.71a15.81,15.81,0,0,1,1,3.38,22,22,0,0,1,.44,3,13.78,13.78,0,0,1-.51,5.11,8.91,8.91,0,0,1-5.84,5.86c-3.55,1.14-7.5.52-11-.58a7.35,7.35,0,0,1-4.57-3.86,12,12,0,0,1-1-5.8,14.7,14.7,0,0,1,1.41-6A15.1,15.1,0,0,1,221,41a21.15,21.15,0,0,1,12.2-4.3c5.06-.2,10,2.18,13.85,5.23a37.37,37.37,0,0,1,5.4,5.27,16.9,16.9,0,0,1,3.19,5.07,9.87,9.87,0,0,1-1,9.37c-2.33,3.05-6.47,4-10.14,3.66-3.47-.3-6.83-2.39-7.91-5.83s.61-7,3.49-9.14a6.58,6.58,0,0,1,2.77-1,10.1,10.1,0,0,1,2.8,0,13.11,13.11,0,0,1,5.36,2,15.6,15.6,0,0,1,6.94,9.35,10.9,10.9,0,0,1-2.56,9.86,13.63,13.63,0,0,1-8.44,4.09,14.89,14.89,0,0,1-9.36-1.82,10.65,10.65,0,0,1-5.27-7.91A4.47,4.47,0,0,1,236,60a9.37,9.37,0,0,1,7.22,1.54,7.44,7.44,0,0,1,2.57,3,7.13,7.13,0,0,1-.26,6.18c-2.28,4.66-7.62,7-12.53,7.64a25.53,25.53,0,0,1-14.78-2.84A15.26,15.26,0,0,1,213.31,72a10.55,10.55,0,0,1-2.5-5.23,5.9,5.9,0,0,1,1.62-5.12,4.47,4.47,0,0,1,2.31-1.28,10.38,10.38,0,0,1,2.49-.26,19.65,19.65,0,0,1,10.85,3.59,10.92,10.92,0,0,1,3.54,3.74,6.4,6.4,0,0,1,.27,4.58c-.8,3-3.29,5.17-6,6.56a27.16,27.16,0,0,1-9.84,2.69,23.24,23.24,0,0,1-9.46-.76,13.64,13.64,0,0,1-9.3-9.42c-1.28-5.25.55-10.94,3.79-15.12a19.62,19.62,0,0,1,5.44-4.87,20.73,20.73,0,0,1,7.39-2.49,27,27,0,0,1,16.53,2.63,15.7,15.7,0,0,1,6.36,5.09,9.13,9.13,0,0,1,1.26,7.22,11,11,0,0,1-4.41,5.84,16.15,16.15,0,0,1-6.84,2.52,14.91,14.91,0,0,1-10.94-2.12,14.51,14.51,0,0,1-5.61-8.55A20.19,20.19,0,0,1,211,49.83a25.58,25.58,0,0,1,2.86-6,16.54,16.54,0,0,1,4.86-4.64,16.74,16.74,0,0,1,12.84-1.65,17.29,17.29,0,0,1,6,2.59c1.64,1.15,3.42,2.9,3.85,4.94a11.24,11.24,0,0,1-4.71,11.28,10.3,10.3,0,0,1-6,1.9,17.61,17.61,0,0,1-3.23-.48,12.84,12.84,0,0,1-2.59-.76c-2.32-1-4.14-2.79-4.21-5.4a10.2,10.2,0,0,1,2.64-6.54c3-3.63,8.59-6.35,12.76-2.9.43.35.82-.21.4-.56Z" style="fill:#37474f"></path><path d="M23.83,245.22c0,.21,14.83,14.56,14.83,14.56l12.27-6.56L69,279s-8.39-21.69-11.27-34.81l-10.15,2.43-7.86-17.91Z" style="fill:#BA68C8"></path><path d="M23.83,245.22c0,.21,14.83,14.56,14.83,14.56l12.27-6.56L69,279s-8.39-21.69-11.27-34.81l-10.15,2.43-7.86-17.91Z" style="fill:#fff;opacity:0.5"></path><path d="M26.12,247.61C29,250.83,32,253.88,35,257l2.36,2.41a2.17,2.17,0,0,0,1.92.88,3.61,3.61,0,0,0,1.25-.56l1.52-.86,2.82-1.6,6.39-3.64-.89-.19Q56.83,264,64.2,274c1.4,1.9,2.83,3.77,4.28,5.63.35.44,1.37.17,1.11-.47a239.84,239.84,0,0,1-9.3-27.47q-1.08-4-2-8c-.07-.32-.53-.41-.79-.33l-7.24,2.26c-.54.17-1.08.37-1.63.52-.35.09-.5.14-.73-.19a5,5,0,0,1-.35-.74c-.51-1.08-1-2.18-1.5-3.27-2-4.48-3.77-9-5.7-13.54a.69.69,0,0,0-1.1-.11q-3.7,3.69-7.32,7.47A98.05,98.05,0,0,0,25,243.35c-.32.43.41.9.76.57,2.47-2.43,4.77-5,7.16-7.53s4.81-5,7.26-7.4l-1.09-.11c1.63,3.82,3.19,7.67,4.84,11.48.83,1.91,1.7,3.79,2.58,5.68.32.7.76,1.31,1.61,1.3a10.75,10.75,0,0,0,2.82-.78l6.89-2.15-.79-.33a239.54,239.54,0,0,0,8.35,27.76c.95,2.58,1.95,5.13,3,7.67l1.11-.46c-5.08-6.48-9.83-13.19-14.32-20.08-1.28-2-2.53-4-3.75-5.94a.65.65,0,0,0-.89-.19l-6.65,3.81L40.7,258.5c-.46.25-1.34,1-1.9.85s-.91-.81-1.22-1.12c-3.65-3.69-7.22-7.51-11.07-11-.32-.3-.69,0-.39.37Z" style="fill:#455a64"></path><path d="M352.85,111.61a4,4,0,0,1,6.47-4.71c.9-2.66,2-5.47,4.34-7s6.2-1.06,7.09,1.6c.54-4.88,1.12-9.91,3.51-14.2s7.05-7.71,11.93-7.09c4.43.58,7.92,4.35,9.49,8.54s1.56,8.78,1.54,13.25c3.13-4.15,9.13-5.67,14.06-4a15.82,15.82,0,0,1,9.85,11.27,20.83,20.83,0,0,1-2.49,15.05,572.82,572.82,0,0,0-63.41-9.9Z" style="fill:#BA68C8"></path><g style="opacity:0.5"><path d="M352.85,111.61a4,4,0,0,1,6.47-4.71c.9-2.66,2-5.47,4.34-7s6.2-1.06,7.09,1.6c.54-4.88,1.12-9.91,3.51-14.2s7.05-7.71,11.93-7.09c4.43.58,7.92,4.35,9.49,8.54s1.56,8.78,1.54,13.25c3.13-4.15,9.13-5.67,14.06-4a15.82,15.82,0,0,1,9.85,11.27,20.83,20.83,0,0,1-2.49,15.05,572.82,572.82,0,0,0-63.41-9.9Z" style="fill:#fff"></path></g><path d="M355.22,114.8c8.34,1,16.68,2,25,3.24s16.33,2.55,24.45,4.09q6.93,1.32,13.82,2.79a.79.79,0,0,0,.78-.37c3.38-6,4.28-13.48.94-19.64-2.93-5.43-8.76-9-15-8.12a13,13,0,0,0-8.51,4.78l1.24.31c0-4.3,0-8.72-1.39-12.84A14.92,14.92,0,0,0,390.36,81a10.46,10.46,0,0,0-9.78-.51,15.55,15.55,0,0,0-7.48,7.59c-2,4.21-2.54,8.88-3,13.46l1.36-.28c-1-2.77-4.51-3.44-7-2.45-3.25,1.28-4.69,4.9-5.73,7.95l1.13-.27a4.9,4.9,0,0,0-6.23-.38,4.72,4.72,0,0,0-1.32,5.72c.31.62,1.51.26,1.18-.4a3.68,3.68,0,0,1,.89-4.4,3.45,3.45,0,0,1,4.49.32.72.72,0,0,0,1.13-.27c.88-2.55,2-5.76,4.62-7,1.86-.89,4.75-.53,5.52,1.63.26.74,1.28.39,1.35-.27.78-7,1.85-15.19,8.45-19.17a9.24,9.24,0,0,1,9.1-.51,13.22,13.22,0,0,1,6,7.1c1.6,4.21,1.55,8.78,1.53,13.22,0,.61.92.73,1.24.31,3.38-4.41,9.74-5.55,14.65-3.21,5.39,2.57,8.48,8.45,8.52,14.28A21.16,21.16,0,0,1,418,124l.78-.37q-12.21-2.61-24.53-4.68t-24.94-3.59c-4.68-.56-9.39-1-14.09-1.41-.64,0-.6.75,0,.82Z" style="fill:#455a64"></path><path d="M368.07,121.41l-1,1.69c-.27.44-.53.89-.81,1.33a18.12,18.12,0,0,0-1.59,2.55.48.48,0,0,0,0,.54l.06.08a.42.42,0,0,0,.47.18c.76-.24,1.29-1.14,1.71-1.77.27-.42.54-.85.8-1.28s.6-1,.88-1.56a8.11,8.11,0,0,0,.68-1.5c.08-.29-.22-.55-.47-.6a.68.68,0,0,0-.42,0c-.06,0-.4.27-.34.31Z" style="fill:#455a64"></path><path d="M375.27,131.6s-.94,1.58-1,1.69c-.26.45-.53.89-.81,1.33a19.35,19.35,0,0,0-1.59,2.55.52.52,0,0,0,0,.55l.06.07a.41.41,0,0,0,.47.18c.76-.23,1.29-1.14,1.71-1.77.28-.42.54-.85.8-1.28s.6-1,.88-1.55a8.2,8.2,0,0,0,.68-1.51c.09-.29-.21-.55-.47-.6a.76.76,0,0,0-.42,0c-.05,0-.4.27-.34.31Z" style="fill:#455a64"></path><path d="M388.22,125.56s-.94,1.58-1,1.69c-.27.45-.53.89-.81,1.33a19.35,19.35,0,0,0-1.59,2.55.48.48,0,0,0,0,.54l.06.08a.42.42,0,0,0,.47.18c.76-.23,1.29-1.14,1.71-1.77.27-.42.54-.85.8-1.28s.6-1,.87-1.55a8.56,8.56,0,0,0,.69-1.51c.08-.29-.22-.55-.47-.6a.68.68,0,0,0-.42,0c-.06,0-.4.27-.35.31Z" style="fill:#455a64"></path><path d="M408.63,127.07l-1,1.69-.81,1.33a19.42,19.42,0,0,0-1.6,2.55.49.49,0,0,0,0,.54l.06.08a.41.41,0,0,0,.46.18c.77-.23,1.3-1.14,1.71-1.77.28-.42.55-.85.81-1.28s.59-1,.87-1.55a8.56,8.56,0,0,0,.69-1.51c.08-.29-.22-.55-.47-.6a.67.67,0,0,0-.42,0c-.06,0-.41.27-.35.31Z" style="fill:#455a64"></path><path d="M396,134.32,395,136c-.27.45-.54.89-.82,1.33a20.46,20.46,0,0,0-1.59,2.55.5.5,0,0,0,0,.54l.07.08a.41.41,0,0,0,.46.18c.77-.23,1.3-1.14,1.71-1.77.28-.42.55-.85.81-1.28s.59-1,.87-1.55a7.85,7.85,0,0,0,.68-1.51c.09-.29-.21-.55-.46-.6a.67.67,0,0,0-.42,0c-.06,0-.41.27-.35.31Z" style="fill:#455a64"></path><path d="M139.21,82.46a570.16,570.16,0,0,0-55.77,31.76,22.69,22.69,0,0,1-7.8-12.77,10.64,10.64,0,0,1,1-7.68,8.86,8.86,0,0,1,6.19-4,8.32,8.32,0,0,1,3.78.14c.61.19,3.28,1.18,3.42,1.72a40.76,40.76,0,0,1-1.31-11.27,13,13,0,0,1,.9-5c1.81-4,6.94-5.8,11.29-4.92s8,3.82,11.07,7a8.32,8.32,0,0,1,1.66-3.8c1.52-1.63,4.16-1.74,6.22-.88a16.64,16.64,0,0,1,5.2,4.12,5.83,5.83,0,0,1,4.11-5.64,7.41,7.41,0,0,1,7,1.71,10.32,10.32,0,0,1,3.18,6.63Z" style="fill:#BA68C8"></path><g style="opacity:0.8"><path d="M139.21,82.46a570.16,570.16,0,0,0-55.77,31.76,22.69,22.69,0,0,1-7.8-12.77,10.64,10.64,0,0,1,1-7.68,8.86,8.86,0,0,1,6.19-4,8.32,8.32,0,0,1,3.78.14c.61.19,3.28,1.18,3.42,1.72a40.76,40.76,0,0,1-1.31-11.27,13,13,0,0,1,.9-5c1.81-4,6.94-5.8,11.29-4.92s8,3.82,11.07,7a8.32,8.32,0,0,1,1.66-3.8c1.52-1.63,4.16-1.74,6.22-.88a16.64,16.64,0,0,1,5.2,4.12,5.83,5.83,0,0,1,4.11-5.64,7.41,7.41,0,0,1,7,1.71,10.32,10.32,0,0,1,3.18,6.63Z" style="fill:#fff"></path></g><path d="M139,82.07c-7.56,3.56-15,7.49-22.28,11.52s-14.56,8.25-21.7,12.62q-6,3.67-11.93,7.5h.85A22,22,0,0,1,76.26,101a9.48,9.48,0,0,1,1.42-7.51,8.54,8.54,0,0,1,6.24-3.12,7.53,7.53,0,0,1,3.32.55c.47.18,1,.38,1.41.61a4.82,4.82,0,0,1,.5.27,1.49,1.49,0,0,1,.2.15s.08.12,0,0c.31.8,1.54.3,1.34-.5A40.41,40.41,0,0,1,89.43,82c-.06-2.74,0-5.83,1.85-8A9.15,9.15,0,0,1,97,71a12.38,12.38,0,0,1,7.19,1.31,27,27,0,0,1,7.3,5.67c.34.36,1,.06,1.14-.37a7,7,0,0,1,1.75-3.76,4.37,4.37,0,0,1,3.31-.91c2.86.28,5,2.51,6.87,4.46a.73.73,0,0,0,1.17-.51,5,5,0,0,1,2-4.18,5.62,5.62,0,0,1,4.81-.92c3.65.88,5.74,4.37,6.16,7.9.08.71,1.33.6,1.25-.11a10.36,10.36,0,0,0-4.94-8.15,7.37,7.37,0,0,0-8.76.93,6.2,6.2,0,0,0-1.9,4.61l1.17-.51c-2.25-2.35-4.76-4.76-8.21-4.81A5.79,5.79,0,0,0,113.4,73a8.27,8.27,0,0,0-2.07,4.34l1.14-.37c-3.89-4-9-7.9-14.93-7.33a11.19,11.19,0,0,0-6.69,2.91c-2.15,2.06-2.71,4.9-2.8,7.77a41.88,41.88,0,0,0,1.33,11.58l1.34-.5c-.3-.76-1.41-1.14-2.09-1.43a11.22,11.22,0,0,0-2.77-.9,10.44,10.44,0,0,0-8,2.29c-4.76,4-3.41,11-.89,15.9a23.83,23.83,0,0,0,6,7.43.77.77,0,0,0,.85,0q10.41-6.73,21.11-13t21.58-12.09c4.32-2.32,8.67-4.58,13-6.83.48-.24-.16-.92-.57-.73Z" style="fill:#455a64"></path><path d="M96.72,110.72a12.33,12.33,0,0,0,.2,2c.07.62.16,1.25.21,1.87s.06,1.46.15,2.17a2.4,2.4,0,0,0,.2.84.82.82,0,0,0,.69.39c.29,0,.43-.42.5-.67a5.27,5.27,0,0,0,.07-1.32c0-.63-.1-1.27-.16-1.9s-.12-1.14-.22-1.7a6.48,6.48,0,0,0-.51-2c-.26-.49-1.11-.21-1.13.3Z" style="fill:#455a64"></path><path d="M108.64,114.42a12.33,12.33,0,0,0,.2,2c.08.62.16,1.24.21,1.87s.06,1.45.15,2.17a2.4,2.4,0,0,0,.2.84.84.84,0,0,0,.69.39c.29,0,.43-.42.5-.67a5.3,5.3,0,0,0,.07-1.32c0-.63-.1-1.27-.16-1.9s-.12-1.14-.22-1.7a6.41,6.41,0,0,0-.51-2c-.26-.49-1.11-.21-1.13.3Z" style="fill:#455a64"></path><path d="M115.23,101.74a13.57,13.57,0,0,0,.21,2c.07.63.15,1.25.21,1.88s0,1.45.15,2.17a2.34,2.34,0,0,0,.19.83.85.85,0,0,0,.69.4c.3,0,.44-.43.5-.67a4.51,4.51,0,0,0,.07-1.32c0-.64-.09-1.28-.15-1.91s-.13-1.13-.22-1.7a6.35,6.35,0,0,0-.51-2c-.27-.5-1.12-.21-1.14.3Z" style="fill:#455a64"></path><path d="M132.34,90.51a12.32,12.32,0,0,0,.2,2c.08.62.16,1.25.21,1.87s.06,1.46.15,2.18a2.4,2.4,0,0,0,.2.83.85.85,0,0,0,.69.4c.29-.06.44-.43.5-.68a4.84,4.84,0,0,0,.07-1.32c0-.63-.09-1.27-.16-1.9s-.12-1.14-.21-1.7a6.65,6.65,0,0,0-.52-2c-.26-.5-1.11-.21-1.13.3Z" style="fill:#455a64"></path><path d="M126.71,104a13.57,13.57,0,0,0,.21,2c.07.63.15,1.25.21,1.88s.05,1.45.15,2.17a2.34,2.34,0,0,0,.19.83.85.85,0,0,0,.69.4c.3,0,.44-.43.5-.67a4.51,4.51,0,0,0,.07-1.32c0-.64-.09-1.28-.15-1.91s-.13-1.13-.22-1.7a6.35,6.35,0,0,0-.51-2c-.27-.5-1.12-.21-1.14.3Z" style="fill:#455a64"></path><path d="M386.85,183.13c.86-.74,1.55-1.66,2.4-2.42a17.65,17.65,0,0,1,2.92-2.09,16.18,16.18,0,0,1,6.48-2,15.7,15.7,0,0,1,12.13,3.92,10.05,10.05,0,0,1,1.73,2.22,13.49,13.49,0,0,1,1,2.08,5.18,5.18,0,0,0,1,2,.44.44,0,0,0,.73-.11c.43-1.34-.21-3-.8-4.22a11.61,11.61,0,0,0-1.74-2.64,14.86,14.86,0,0,0-5.44-3.71,17.54,17.54,0,0,0-18.69,3.27,9,9,0,0,0-2.59,3.29c-.17.51.55.78.89.49Z" style="fill:#455a64"></path><path d="M395.31,162.85a7.4,7.4,0,0,0-.05,1.94l.06,1.39c0,.94.05,1.88.14,2.82a.73.73,0,0,0,1.45-.06c0-1-.09-2-.14-3l-.06-1.44a5.14,5.14,0,0,0-.26-1.71.63.63,0,0,0-1.14.1Z" style="fill:#455a64"></path><path d="M408.4,164.32a9.84,9.84,0,0,0-.3,1.62c-.07.48-.13,1-.2,1.46a24.38,24.38,0,0,0-.24,2.82c0,.89,1.43.74,1.46-.1s.13-1.9.24-2.85c.06-.49.13-1,.19-1.47a4.61,4.61,0,0,0,.08-1.48c0-.26-.39-.4-.62-.4a.64.64,0,0,0-.61.4Z" style="fill:#455a64"></path><polygon points="423.14 252.79 411.54 272.36 399.35 266.42 390.36 281.85 385.25 279.05 387.76 291.92 400.09 288.06 395.74 285.26 401.95 276.36 414.86 282.71 431.94 260.76 423.14 252.79" style="fill:#BA68C8"></polygon><polygon points="423.14 252.79 411.54 272.36 399.35 266.42 390.36 281.85 385.25 279.05 387.76 291.92 400.09 288.06 395.74 285.26 401.95 276.36 414.86 282.71 431.94 260.76 423.14 252.79" style="fill:#fff;opacity:0.8"></polygon><path d="M387.77,292.42a.48.48,0,0,1-.26-.07.51.51,0,0,1-.24-.33l-2.51-12.87a.48.48,0,0,1,.19-.5.5.5,0,0,1,.54,0l5,2.74a.5.5,0,0,1-.48.87L385.94,280l2.21,11.28,10.77-3.38-3.45-2.22a.49.49,0,0,1-.22-.32.47.47,0,0,1,.08-.38l6.21-8.91a.5.5,0,0,1,.63-.16l12.54,6.17,16.55-21.26-8-7.24-11.29,19a.5.5,0,0,1-.65.2l-11.78-5.74-7.28,12.51a.51.51,0,0,1-.69.18.49.49,0,0,1-.18-.68l7.52-12.91a.5.5,0,0,1,.65-.2l11.79,5.74,11.36-19.17a.47.47,0,0,1,.35-.24.5.5,0,0,1,.41.12l8.8,8a.49.49,0,0,1,.06.67L415.25,283a.5.5,0,0,1-.61.14L402.11,277l-5.66,8.12,3.91,2.52a.48.48,0,0,1,.22.48.47.47,0,0,1-.34.41l-12.33,3.87Z" style="fill:#455a64"></path><path d="M336.14,79a9.71,9.71,0,0,0-5.11-4.8,24,24,0,0,0-7.62-2A20.39,20.39,0,0,0,308.81,76a15.11,15.11,0,0,0-6.14,11.45,12.82,12.82,0,0,0,5.7,11.06c2.34,1.46,5.14,2,7.79,2.7a42.89,42.89,0,0,0,9,1.45c4.13.13,10.62-1,11.16-6.12.26-2.46-1.24-4.75-2.88-6.43a20.25,20.25,0,0,0-6.27-4.24,21.39,21.39,0,0,0-14.8-1,20.74,20.74,0,0,0-11.77,8.85,13.17,13.17,0,0,0-2,7.09,14.73,14.73,0,0,0,1.95,6.68c2.52,4.49,7,7.35,11.73,9a39.68,39.68,0,0,0,7.7,1.71,26.43,26.43,0,0,0,8,0c2.19-.38,5.2-1.21,6.38-3.29s-.38-4.51-2-5.9a16.49,16.49,0,0,0-6.75-3.08,20.11,20.11,0,0,0-7.84-.3,16.77,16.77,0,0,0-11.41,7,10.83,10.83,0,0,0,12.69,16.29,8.22,8.22,0,0,0,3-1.71,3.13,3.13,0,0,0,1.11-2.71c-.24-1.1-1.33-1.48-2.3-1.74a26.94,26.94,0,0,0-4.08-.78,25.75,25.75,0,0,0-8.44.42,10.73,10.73,0,0,0-5.59,2.86,5.65,5.65,0,0,0,3.32,9.45,5.85,5.85,0,0,0,5.35-2.11.39.39,0,0,0,0-.5,7.59,7.59,0,0,0-4.88-2.16,15.89,15.89,0,0,0-5.15,0c-1.52.33-3,1.35-3,3-.07,2.08,1.68,3.63,3,4.93.16.14.24-.17.13-.27-1.19-1.14-2.65-3-2.26-4.77.32-1.48,1.71-2.08,3.08-2.26a16.82,16.82,0,0,1,4.31.1,6.3,6.3,0,0,1,4,1.82l0-.5a5,5,0,0,1-5.16,1.72,4.81,4.81,0,0,1-3.27-4.34c-.27-4.62,5.25-6.22,8.86-6.66a25.07,25.07,0,0,1,7.92.32c.57.11,1.13.24,1.69.4s1.44.31,1.6,1c.21.94-.75,1.95-1.44,2.44a9.8,9.8,0,0,1-12-.74A10,10,0,0,1,306.38,115a14.54,14.54,0,0,1,8.8-7.7,19.07,19.07,0,0,1,13.72.77c1.93.87,4.16,2.23,4.74,4.43.68,2.54-2.11,3.77-4.08,4.37a19.75,19.75,0,0,1-7.18.6,41.47,41.47,0,0,1-7-1.13c-4.42-1.1-8.82-3.1-11.83-6.62-2.8-3.26-4.43-7.74-3.32-12s4.66-8,8.55-10.1a20,20,0,0,1,13.06-2.24c4.35.76,8.93,3,11.66,6.56,1.33,1.73,2.26,4.09,1.14,6.17a7.1,7.1,0,0,1-4.68,3.12c-5.06,1.28-10.51-.2-15.42-1.46A16.52,16.52,0,0,1,308.05,97a11.18,11.18,0,0,1-3.31-4.68,12.81,12.81,0,0,1,1.14-11.37c5.15-8.27,16.55-9.47,24.86-5.68a9,9,0,0,1,4.57,4c.21.44,1.06.35.83-.2Z" style="fill:#455a64"></path></g></svg>